<?xml version="1.0" standalone="no"?>
<!DOCTYPE svg PUBLIC "-//W3C//DTD SVG 1.1//EN" "http://www.w3.org/Graphics/SVG/1.1/DTD/svg11.dtd" >
<svg xmlns="http://www.w3.org/2000/svg" xmlns:xlink="http://www.w3.org/1999/xlink" version="1.1">
<metadata>
Created by FontForge 20170731 at Sun Jun  3 05:59:31 2001
 By Aleksey,,,
Copyright (c) Typographer Mediengestaltung, 2000. All rights reserved.
</metadata>
<defs>
<font id="Belshaw" horiz-adv-x="533" >
  <font-face 
    font-family="Belshaw"
    font-weight="400"
    font-stretch="normal"
    units-per-em="1000"
    panose-1="0 0 4 0 0 0 0 0 0 0"
    ascent="800"
    descent="-200"
    x-height="458"
    cap-height="677"
    bbox="-84 -249 1415 888"
    underline-thickness="20"
    underline-position="-212"
    unicode-range="U+0020-F002"
  />
<missing-glyph horiz-adv-x="500" 
d="M63 0v751h375v-751h-375zM125 63h250v626h-250v-626z" />
    <glyph glyph-name=".notdef" horiz-adv-x="500" 
d="M63 0v751h375v-751h-375zM125 63h250v626h-250v-626z" />
    <glyph glyph-name=".null" horiz-adv-x="0" 
 />
    <glyph glyph-name="nonmarkingreturn" horiz-adv-x="436" 
 />
    <glyph glyph-name="space" unicode=" " horiz-adv-x="436" 
 />
    <glyph glyph-name="exclam" unicode="!" horiz-adv-x="328" 
d="M164 169q39 0 66.5 -27.5t27.5 -66.5t-27.5 -66t-66.5 -27t-66.5 27t-27.5 66t27.5 66.5t66.5 27.5zM166 689q40 0 65.5 -30t25.5 -78q0 -25 -15 -88q-25 -106 -25 -158q0 -14 2 -42t2 -42q0 -26 -15.5 -42.5t-39.5 -16.5q-23 0 -39 16.5t-16 41.5q0 11 2 33.5t2 33.5
q0 68 -26 172l-5 20q-13 52 -13 82q0 42 27 70t68 28z" />
    <glyph glyph-name="quotedbl" unicode="&#x22;" 
d="M179 667q28 0 45.5 -21t17.5 -54q0 -18 -10 -61q-17 -74 -17 -108q0 -19 2 -39v-20q0 -17 -11 -29t-27 -12t-27 11.5t-11 28.5q0 6 1.5 24.5t1.5 23.5q0 32 -15 94t-15 94q0 29 18.5 48.5t46.5 19.5zM357 667q28 0 45.5 -21t17.5 -54q0 -11 -9 -52l-2 -9
q-17 -76 -17 -108q0 -6 1.5 -29t1.5 -30q0 -17 -11 -29t-27 -12t-27 11.5t-11 28.5q0 6 1.5 24.5t1.5 23.5q0 45 -18 117l-3 12q-10 40 -10 59q0 29 19 48.5t47 19.5z" />
    <glyph glyph-name="numbersign" unicode="#" horiz-adv-x="592" 
d="M107 0l25 184h-88v96h101l16 120h-88v96h101l26 184h94l-25 -184h97l25 184h94l-25 -184h88v-96h-101l-16 -120h88v-96h-101l-26 -184h-94l25 184h-97l-25 -184h-94zM353 400h-98l-16 -120h98z" />
    <glyph glyph-name="dollar" unicode="$" 
d="M295 659q12 -3 30 -10l22 -8q7 -4 17 -4q4 1 21 2q3 1 15 1q31 0 31 -27q0 -6 -2 -17q-9 -51 -9 -96q0 -60 -37 -60q-34 0 -38 55q-8 94 -80 94q-29 0 -47.5 -17t-18.5 -42q0 -28 17 -43.5t85 -50.5q42 -22 65 -35q67 -38 95.5 -81t28.5 -106q0 -80 -57.5 -139
t-137.5 -68v-65q0 -43 -29 -43q-30 0 -30 43v65q-16 1 -65 13q-21 5 -27 5q-16 0 -32 -5l-22 -7q-6 -2 -14 -2q-32 0 -32 29q0 9 3 24q8 39 8 92v12q0 -6 -0.5 7t-1.5 38q-1 2 -1 9q0 51 40 51q37 0 47 -72q14 -99 114 -99q45 0 72 24t27 64q0 38 -27 67q-24 26 -102 65
q-86 43 -121 83.5t-35 95.5q0 68 52 112q47 41 117 47v31q0 38 30 38q29 0 29 -38v-32z" />
    <glyph glyph-name="percent" unicode="%" horiz-adv-x="713" 
d="M698 194q0 -97 -37.5 -149t-107.5 -52t-108 54t-38 155q0 93 38 145.5t106 52.5q70 0 108.5 -54t38.5 -152zM399 636q7 31 30 31q28 0 28 -27q0 -5 -1 -11l-1 -6l-137 -592q-7 -31 -30 -31q-28 0 -28 27q0 7 2 13v4zM306 461q0 -97 -38 -149.5t-107 -52.5
q-146 0 -146 210q0 92 38 145t105 53q71 0 109.5 -54t38.5 -152zM599 196q0 136 -47 136q-45 0 -45 -136t47 -136q45 0 45 136zM206 462q0 137 -47 137q-45 0 -45 -136t47 -136q45 0 45 135z" />
    <glyph glyph-name="ampersand" unicode="&#x26;" horiz-adv-x="585" 
d="M434 265q5 -7 6 -9q14 -21 36 -46q75 -88 75 -163q0 -49 -32.5 -82.5t-80.5 -33.5q-38 0 -65.5 22t-27.5 52q0 19 16 23q31 8 31 36q0 17 -14 43q-52 -115 -175 -115q-82 0 -139 55.5t-57 136.5q0 85 70 155q29 29 62 54q-43 77 -43 133q0 66 43 107.5t109 41.5
q60 0 101.5 -38t41.5 -97q0 -57 -41 -98l-35 -35q-1 -2 -9 -10l54 -56q2 5 4 15q6 22 21 72q11 34 40 55t63 21q40 0 65.5 -25t25.5 -63q0 -29 -18 -51.5t-41 -22.5q-11 0 -15 10l-6 16q-4 11 -17 11q-16 0 -26 -24t-22 -90zM243 470q50 44 50 78q0 19 -11.5 32t-27.5 13
q-18 0 -30.5 -14.5t-12.5 -35.5q0 -29 32 -73zM206 308q-59 -68 -59 -129q0 -33 21 -55.5t52 -22.5q66 0 95 86z" />
    <glyph glyph-name="quotesingle" unicode="'" horiz-adv-x="356" 
d="M179 667q28 0 45.5 -21t17.5 -54q0 -18 -10 -61q-17 -74 -17 -108q0 -19 2 -39v-20q0 -17 -11 -29t-27 -12t-27 11.5t-11 28.5q0 6 1.5 24.5t1.5 23.5q0 32 -15 94t-15 94q0 29 18.5 48.5t46.5 19.5z" />
    <glyph glyph-name="parenleft" unicode="(" horiz-adv-x="308" 
d="M238 564q-27 -62 -43 -161q-14 -88 -14 -168q0 -98 24 -192q18 -74 63 -184q5 -13 5 -22q0 -30 -29 -30q-32 0 -86 64q-138 164 -138 377q0 107 32 193.5t104 176.5q55 68 88 68q12 0 21.5 -9t9.5 -20q0 -9 -6 -23z" />
    <glyph glyph-name="parenright" unicode=")" horiz-adv-x="308" 
d="M39 634q-6 14 -6 23q0 29 32 29q11 0 23 -8q29 -19 64 -60q136 -160 136 -370q0 -204 -138 -377q-51 -64 -87 -64q-11 0 -19.5 9t-8.5 21q0 11 7 27q17 39 29 72q56 152 56 299q0 80 -14 168q-16 99 -43 161z" />
    <glyph glyph-name="asterisk" unicode="*" 
d="M292 536l7 5l21 18q35 30 69 30q19 0 35 -14t16 -32q0 -59 -93 -59q-28 0 -41 1q86 -54 86 -89q0 -52 -46 -52q-47 0 -66 59q-3 13 -15 52q-20 -110 -79 -110q-47 0 -47 50q0 13 4 21q11 23 54 51q7 5 25 17q-7 -1 -25 -1q-104 0 -104 66q0 18 14.5 30.5t34.5 12.5
q34 0 92 -52q-19 50 -19 85q0 55 50 55q48 0 48 -58q0 -30 -21 -86z" />
    <glyph glyph-name="plus" unicode="+" 
d="M430 253q37 0 37 -33t-37 -33h-130v-130q0 -37 -33 -37t-33 37v130h-130q-37 0 -37 33t37 33h130v130q0 37 33 37t33 -37v-130h130z" />
    <glyph glyph-name="comma" unicode="," horiz-adv-x="301" 
d="M244 59q0 -69 -48 -145q-43 -68 -81 -68q-27 0 -27 27q0 10 8 22q2 5 15 22q21 27 21 48q0 16 -29 36q-46 32 -46 78q0 38 27 65t65 27q43 0 69 -30.5t26 -81.5z" />
    <glyph glyph-name="hyphen" unicode="-" horiz-adv-x="200" 
d="M163 253q37 0 37 -33t-37 -33h-126q-37 0 -37 33t37 33h126z" />
    <glyph glyph-name="hyphen" unicode="&#x2010;" horiz-adv-x="200" 
d="M163 253q37 0 37 -33t-37 -33h-126q-37 0 -37 33t37 33h126z" />
    <glyph glyph-name="period" unicode="." horiz-adv-x="301" 
d="M151 169q38 0 66 -27.5t28 -66.5t-27.5 -66t-66.5 -27t-66.5 27t-27.5 66t27.5 66.5t66.5 27.5z" />
    <glyph glyph-name="slash" unicode="/" horiz-adv-x="269" 
d="M184 675q7 29 33 29q33 0 33 -32v-6q-1 -3 -1 -6l-2 -8l-162 -699q-7 -29 -33 -29q-33 0 -33 32q0 10 1 12l2 7z" />
    <glyph glyph-name="zero" unicode="0" 
d="M509 324q0 -162 -63 -249t-179 -87q-117 0 -180 90t-63 259q0 154 63.5 242t175.5 88q118 0 182 -89.5t64 -253.5zM344 326q0 227 -79 227q-75 0 -75 -226q0 -227 79 -227q75 0 75 226z" />
    <glyph glyph-name="one" unicode="1" 
d="M358 106q1 -14 16 -21l19 -9q28 -13 28 -38q0 -22 -18 -32q-10 -6 -46 -6h-147q-36 0 -46 6q-18 10 -18 32q0 25 28 38l19 9q17 8 17 37l-2 284q0 29 -34 29h-17q-38 0 -38 35q0 18 41 54t89 92l18 21q26 30 48 30q33 0 40 -40q2 -12 2 -49z" />
    <glyph glyph-name="two" unicode="2" 
d="M215 154q22 8 40 8q14 0 40 -5t40 -5q26 0 59.5 29.5t47.5 29.5q13 0 23 -10t10 -23q0 -12 -4 -21q-10 -18 -45 -125q-14 -44 -56 -44q-22 0 -83 23.5t-92 23.5q-18 0 -48.5 -19t-48.5 -19q-16 0 -26.5 16.5t-10.5 42.5q0 24 7 53q15 63 46 115q22 37 75 101l47 57
q70 85 70 129q0 23 -13 38t-33 15q-17 0 -29.5 -12t-12.5 -29q0 -14 15 -29t15 -25q0 -23 -25 -41.5t-56 -18.5q-42 0 -71 30.5t-29 74.5q0 70 66 114q58 39 131 39q78 0 135 -46q60 -49 60 -126q0 -53 -30 -96q-23 -33 -88 -91q-97 -86 -126 -154z" />
    <glyph glyph-name="three" unicode="3" 
d="M389 390q113 -48 113 -180q0 -104 -73 -165q-69 -57 -175 -57q-88 0 -149 41q-70 48 -70 132q0 57 34.5 96t85.5 39q37 0 67.5 -26.5t30.5 -62.5q0 -16 -10 -18l-16 -3q-24 -4 -24 -33q0 -43 52 -43q35 0 56.5 29t21.5 75q0 92 -72 105l-23 4q-26 5 -26 31q0 19 22 38
q5 5 32 29q55 49 55 97q0 22 -15 37t-36 15q-18 0 -32.5 -12t-14.5 -28t19 -35q11 -11 11 -19q0 -10 -6 -21q-28 -39 -77 -39q-38 0 -65.5 30t-27.5 71q0 72 66 114q56 36 132 36q72 0 124 -40q56 -43 56 -113q0 -37 -13.5 -63t-52.5 -61z" />
    <glyph glyph-name="four" unicode="4" 
d="M414 279l8 -3q89 -33 89 -79q0 -17 -13.5 -30t-31.5 -13q-19 0 -41 10l-11 5v-34l1 -13l1 -16q1 -14 16 -21l19 -9q28 -13 28 -38q0 -22 -18 -32q-10 -6 -46 -6h-147q-37 0 -47 6q-17 10 -17 32q0 25 28 38l19 9q17 8 17 37v48q-8 -2 -73 -27q-55 -20 -67 -20
q-29 0 -46 22l-32 41q-18 23 -18 62q0 124 138 294q49 61 88.5 86t87.5 25h38q39 0 39 -36q0 -7 -1 -8l-4 -24q-4 -24 -4 -82v-224zM268 468q-25 -29 -50 -72q-59 -100 -59 -139q0 -12 11 -12q1 0 11 2l36 15l51 17v189z" />
    <glyph glyph-name="five" unicode="5" 
d="M214 451q54 20 94 20q89 0 144 -76q48 -68 48 -161q0 -114 -67 -180t-181 -66q-87 0 -148 40q-71 46 -71 129q0 55 34 94.5t88 39.5q44 0 75 -28.5t31 -69.5q0 -35 -22 -35h-5q-32 0 -32 -31q0 -18 14 -30t36 -12q39 0 62 34t23 91q0 61 -31 99.5t-81 38.5q-25 0 -48 -8
l-55 -19q-12 -4 -23 -4q-38 0 -38 37q0 17 6 39l24 90q5 19 5 30q0 9 -6 21l-12 18q-8 12 -8 19t5 15q7 12 42 23q64 21 85 30q49 21 62 24.5t42 3.5q39 0 84 -21q20 24 39 24q13 0 23 -9.5t10 -22.5q0 -7 -2 -18q-11 -59 -15 -89l-4 -30q-5 -36 -35 -36q-27 0 -40 38
q-20 57 -55 57q-32 0 -72 -20z" />
    <glyph glyph-name="six" unicode="6" horiz-adv-x="532" 
d="M190 355q6 11 13 20q39 51 117 51q85 0 136.5 -58t51.5 -144q0 -105 -64 -170.5t-169 -65.5q-125 0 -192 95q-59 83 -59 213q0 136 71 246q81 125 211 125q58 0 105 -30q54 -34 54 -89q0 -36 -25 -61t-60 -25q-34 0 -55 21q-6 8 -6 13q0 3 5.5 14t5.5 21q0 14 -11 24.5
t-26 10.5q-42 0 -72 -70q-20 -47 -28 -106q0 -8 -3 -35zM190 262l1 -21q3 -54 28.5 -85.5t65.5 -31.5q37 0 60 28.5t23 72.5q0 33 -17 54.5t-43 21.5q-17 0 -29.5 -11.5t-12.5 -26.5v-6l2 -11q0 -14 -22 -14q-29 0 -56 30z" />
    <glyph glyph-name="seven" unicode="7" 
d="M305 517q-16 -2 -23 -2q-15 0 -23 2l-36 9q-16 4 -26 4q-18 0 -60 -32q-28 -21 -44 -21q-14 0 -24.5 11t-10.5 26q0 14 7 25l17 26l18 37l11 33q11 32 55 32q9 0 15 -1l109 -17q51 -8 63 -8q20 0 45 10l32 13q7 3 17 3q36 0 36 -40q0 -50 -60 -178l-53 -113
q-67 -143 -67 -194q0 -37 43 -59q38 -20 38 -45q0 -38 -54 -38h-129q-71 0 -71 76q0 53 28 125q10 26 53 117z" />
    <glyph glyph-name="eight" unicode="8" 
d="M362 396l26 -17q29 -19 48 -34q69 -55 69 -152q0 -95 -67 -150t-183 -55q-94 0 -157 45q-70 51 -70 142q0 48 24 89.5t62 57.5q21 8 62 13q-55 38 -76.5 73.5t-21.5 87.5q0 78 56 124.5t150 46.5q74 0 128 -41q60 -45 60 -117q0 -50 -30 -80.5t-80 -32.5zM309 427
q-13 16 -13 29q0 11 14 20q22 14 22 42q0 24 -17 40t-42 16q-26 0 -43.5 -16t-17.5 -40q0 -32 35 -57q11 -8 62 -34zM253 288q6 -19 6 -25q0 -12 -13 -15q-56 -15 -56 -68q0 -35 23 -58.5t58 -23.5q34 0 57.5 23t23.5 56q0 31 -21.5 55t-77.5 56z" />
    <glyph glyph-name="nine" unicode="9" 
d="M344 315q-46 -60 -121 -60q-86 0 -139.5 55t-53.5 141q0 97 63 156.5t160 59.5q127 0 193 -99q58 -85 58 -218q0 -146 -66 -246q-77 -116 -215 -116q-66 0 -116 31q-59 37 -59 99q0 40 26.5 69t63.5 29q60 0 60 -26q0 -1 -4 -12t-4 -16q0 -34 40 -34q23 0 47 16t37 41
q21 41 30 130zM339 430q-8 53 -18 76q-22 50 -74 50q-36 0 -60 -27.5t-24 -68.5q0 -37 20.5 -63.5t48.5 -26.5q15 0 28 11t13 26q0 6 -2.5 15.5t-2.5 12.5q0 14 21 14q27 0 50 -19z" />
    <glyph glyph-name="colon" unicode=":" horiz-adv-x="301" 
d="M151 420q38 0 66 -27.5t28 -66.5t-28 -66.5t-66 -27.5q-39 0 -66.5 27.5t-27.5 66.5t27.5 66.5t66.5 27.5zM151 169q38 0 66 -27.5t28 -66.5t-27.5 -66t-66.5 -27t-66.5 27t-27.5 66t27.5 66.5t66.5 27.5z" />
    <glyph glyph-name="semicolon" unicode=";" horiz-adv-x="301" 
d="M244 59q0 -69 -48 -145q-43 -68 -81 -68q-27 0 -27 27q0 10 8 22q2 5 15 22q21 27 21 48q0 16 -29 36q-46 32 -46 78q0 38 27 65t65 27q43 0 69 -30.5t26 -81.5zM151 420q38 0 66 -27.5t28 -66.5t-28 -66.5t-66 -27.5q-39 0 -66.5 27.5t-27.5 66.5t27.5 66.5t66.5 27.5z
" />
    <glyph glyph-name="less" unicode="&#x3c;" horiz-adv-x="873" 
d="M271 345q-15 43 -41 43q-31 0 -51 -46t-20 -118q0 -143 70 -143q41 0 41 41q0 18 -19 27.5t-19 18.5q0 26 23 47t52 21q37 0 61 -29t24 -73q0 -69 -54 -110q-48 -37 -120 -37q-97 0 -151 68q-50 62 -50 161q0 94 49 165q55 81 145 81q24 0 52 -5l11 -2h7q3 -1 7 -1
q7 0 13 2l15 5q12 4 18 4q34 0 34 -37q0 4 -2 -27t-2 -58v-24q0 -47 -39 -47q-29 0 -40 32zM574 402q54 60 124 60q67 0 96 -47q12 -19 14 -33.5t2 -62.5v-221q0 -23 15 -29l17 -7q25 -10 25 -31q0 -18 -16 -26q-11 -5 -41 -5h-136q-22 0 -30 5q-11 9 -11 26q0 22 18 31
l12 6q11 5 11 30v194q0 52 -49 52q-21 0 -36 -15.5t-15 -36.5v-194q0 -22 11 -30l12 -6q18 -9 18 -31q0 -31 -41 -31h-136q-29 0 -41 5q-16 9 -16 26q0 21 25 31l17 7q15 6 15 29v422q0 21 -17 29l-20 10q-16 8 -16 28q0 29 54 39q34 6 68 28q25 16 35 16q8 0 17 -4
q13 -7 14 -17q1 -3 1 -38v-209z" />
    <glyph glyph-name="equal" unicode="=" horiz-adv-x="534" 
d="M429 419q37 0 37 -33t-37 -33h-326q-37 0 -37 33t37 33h326zM429 236q37 0 37 -33t-37 -33h-326q-37 0 -37 33t37 33h326z" />
    <glyph glyph-name="greater" unicode="&#x3e;" horiz-adv-x="859" 
d="M271 345q-15 43 -41 43q-31 0 -51 -46t-20 -118q0 -143 70 -143q41 0 41 41q0 18 -19 27.5t-19 18.5q0 26 23 47t52 21q37 0 61 -29t24 -73q0 -69 -54 -110q-48 -37 -120 -37q-97 0 -151 68q-50 62 -50 161q0 94 49 165q55 81 145 81q24 0 52 -5l11 -2h7q3 -1 7 -1
q7 0 13 2l15 5q12 4 18 4q34 0 34 -37q0 4 -2 -27t-2 -58v-24q0 -47 -39 -47q-29 0 -40 32zM574 409q51 53 111 53q43 0 73 -30.5t30 -73.5q0 -66 -61 -97q60 -71 94 -153q12 -29 33 -39q28 -14 28 -36q0 -33 -40 -33h-164q-49 0 -49 33q0 13 10.5 22.5t22.5 19.5q8 7 8 23
q0 35 -27 74l-34 49q-9 13 -9 24q0 15 19 20l15 4q31 8 31 39q0 17 -11.5 29t-27.5 12q-52 0 -52 -83v-168q0 -22 11 -30l12 -6q18 -9 18 -31q0 -31 -41 -31h-136q-57 0 -57 31q0 21 25 31l17 7q15 6 15 29v422q0 21 -17 29l-20 10q-16 8 -16 28q0 29 54 39q34 6 68 28
q25 16 35 16q8 0 17 -4q13 -7 14 -17q1 -3 1 -38v-202z" />
    <glyph glyph-name="question" unicode="?" horiz-adv-x="372" 
d="M180 169q39 0 66.5 -27.5t27.5 -66.5t-27.5 -66t-66.5 -27t-66.5 27t-27.5 66t27.5 66.5t66.5 27.5zM178 539q4 -4 4 -10t-1 -8q-18 -46 -73 -46q-35 0 -60 25.5t-25 62.5q0 59 58 95q51 31 113 31q72 0 118 -40.5t46 -103.5q0 -72 -89 -143q-44 -35 -44 -66
q0 -16 9.5 -42.5t9.5 -39.5q0 -25 -18.5 -43t-42.5 -18q-34 0 -55.5 31t-21.5 79q0 51 55.5 136t55.5 108q0 32 -26 32q-23 0 -23 -22q0 -6 4 -10z" />
    <glyph glyph-name="at" unicode="@" horiz-adv-x="848" 
d="M798 413q0 -110 -80 -189.5t-190 -79.5q-36 0 -50 11t-29 46q-4 9 -9 9q2 0 -42.5 -31t-77.5 -31q-47 0 -74 34q-25 31 -25 79q0 60 26.5 117.5t72.5 95.5q53 44 105 44q17 0 48 -14t36 -14q10 0 42 14t49 14q35 0 35 -29q0 -15 -8 -45q-34 -129 -34 -173q0 -18 17 -18
q46 0 78 63q27 53 27 103q0 91 -67 141q-60 45 -154 45q-150 0 -250 -98q-51 -50 -81 -120t-30 -141q0 -94 65 -142q58 -43 155 -43q87 0 190 42q27 11 38 11q32 0 32 -28q0 -34 -63 -62q-81 -36 -192 -36q-137 0 -217 60q-91 68 -91 200q0 107 58 210q33 59 82 105
q123 117 308 117q128 0 211 -68q89 -74 89 -199zM478 415q0 19 -11 19q-20 0 -48 -47q-32 -53 -32 -101q0 -23 13 -23q23 0 56 73q22 49 22 79z" />
    <glyph glyph-name="A" unicode="A" horiz-adv-x="609" 
d="M365 161q-39 -19 -97 -19q-50 0 -103 19l-14 -35q-4 -10 -4 -16q0 -16 17 -25l18 -10q26 -14 26 -38q0 -16 -14 -26.5t-35 -10.5h-134q-44 0 -44 37q0 17 30 39q34 26 43 50l26 68q-28 13 -28 37q0 38 38 38q10 0 19 -3l95 231q7 17 7 27q0 18 -18 27l-19 10
q-18 9 -18 30q0 22 40 35q34 11 77 37q23 14 37 14q26 0 43 -42l218 -527q7 -18 32.5 -32t25.5 -36q0 -40 -62 -40h-195q-50 0 -50 39q0 24 19 33q5 3 19 10q21 11 21 25q0 11 -3 19zM268 410l-73 -175l10 -3q30 -9 59 -9q35 0 71 14z" />
    <glyph glyph-name="B" unicode="B" horiz-adv-x="570" 
d="M443 375q33 -20 49 -35q55 -51 55 -137q0 -101 -82 -156q-70 -47 -177 -47h-185q-37 0 -47 6q-18 10 -18 33q0 27 28 39l19 8q18 8 18 38v198q-10 0 -11 1q-48 4 -48 43q0 42 59 44v96q0 -8 -5 1q-10 21 -13 25q-10 17 -20 20q-35 12 -35 38q0 25 25 34q13 4 47 6
q59 3 132 32q60 24 102 24q73 0 122 -48.5t49 -120.5q0 -78 -64 -142zM265 410h7q76 0 76 106q0 91 -44 91q-22 0 -30.5 -19.5t-8.5 -68.5v-109zM265 89h15q96 0 96 120q0 113 -100 113h-11v-233z" />
    <glyph glyph-name="C" unicode="C" horiz-adv-x="566" 
d="M516 578q-2 -15 -9 -80q-1 -61 -46 -61q-16 0 -25.5 7.5t-23.5 51.5q-17 54 -20 61q-19 39 -60 39q-73 0 -109 -96q-25 -69 -25 -156q0 -81 26 -150q35 -93 104 -93q24 0 41.5 16.5t17.5 38.5q0 27 -32 44q-14 9 -14 24q0 38 38 66q34 26 74 26q53 0 88 -35t35 -88
q0 -93 -84 -149q-74 -50 -171 -50q-143 0 -223 101q-74 93 -74 240q0 150 70 245q78 106 223 106q30 0 79 -8q18 -3 30 -3q7 0 29.5 2.5t28.5 2.5q41 0 41 -43q0 -9 -2 -20z" />
    <glyph glyph-name="D" unicode="D" horiz-adv-x="662" 
d="M85 86q18 8 18 36v380q-5 11 -10 20q-13 21 -28 26q-35 12 -35 39q0 35 72 40q24 2 53 8q39 9 79 22q87 29 131 29q130 0 205 -101q69 -91 69 -225q0 -167 -90 -263q-93 -97 -259 -97h-187q-37 0 -47 6q-18 10 -18 33q0 27 28 39zM265 90h12q88 0 137.5 75.5t49.5 209.5
q0 77 -29 143q-37 85 -105 85q-35 0 -52 -21q-10 -10 -12 -47l-1 -17v-428z" />
    <glyph glyph-name="E" unicode="E" horiz-adv-x="558" 
d="M265 582v-189l36 5q2 39 38 39q31 0 37 -43q1 -8 4 -24q0 -20 13.5 -60.5t13.5 -57.5q0 -38 -37 -38q-20 0 -31 17q-4 6 -12 36q-13 49 -41 49q-4 0 -21 -3v-166q0 -77 60 -77q62 0 106 101l17 39q16 37 45 37q44 0 44 -39q0 -12 -3 -21l-12 -36q-5 -23 -11 -52
q-10 -47 -10 -77q-7 -42 -49 -42q-25 0 -45 20h-304q-37 0 -47 6q-18 10 -18 33q0 27 28 39l19 8q18 8 18 38v185q-18 0 -31 3q-34 8 -34 41q0 40 58 40h7v109q0 -8 -5 1q-10 21 -13 25q-10 17 -20 20q-35 12 -35 39t26 34q12 3 46 6q19 2 52 10t46 12l74 24q40 13 65 13
q49 0 89 -32q18 24 42 24q15 0 26 -11.5t11 -26.5q0 -3 -2 -13l-7 -34l-5 -52l-2 -51q-2 -48 -43 -48q-28 0 -39 33q-1 1 -6 29q-1 4 -9 32q-1 8 -7 24q-14 40 -60 40q-21 0 -62 -18z" />
    <glyph glyph-name="F" unicode="F" horiz-adv-x="502" 
d="M265 583v-191l36 5q5 42 37 42t37 -44q1 -12 4 -27q2 -10 15 -60q12 -43 12 -55q0 -38 -37 -38q-21 0 -31 16q-7 25 -24 71q-10 15 -30 15q-5 0 -19 -3l2 -206q2 -16 16 -22l20 -8q28 -11 28 -39q0 -23 -18 -33q-10 -6 -47 -6h-163q-37 0 -47 6q-18 10 -18 33q0 27 28 39
l19 8q18 8 18 38v185l-13 1q-53 4 -53 43t66 39v114q0 21 -8 29q-7 5 -30 13q-35 12 -35 39q0 38 72 40q62 2 150 38q52 21 84 21q35 0 67 -15q10 -5 22 -14q22 22 43 22q16 0 27 -10t11 -25q0 -7 -2 -18q-12 -64 -13 -89l-2 -49q-2 -44 -44 -44q-21 0 -31 21q-5 9 -12 40
q-22 97 -77 97q-16 0 -46 -13z" />
    <glyph glyph-name="G" unicode="G" horiz-adv-x="608" 
d="M405 119v86q0 8 -5 30q-7 12 -48 35q-36 20 -36 42q0 38 50 38h133q35 0 47.5 -15t12.5 -59v-60q0 -48 11 -62q3 -5 9 -14q12 -17 12 -33q0 -19 -14 -34q-35 -39 -114 -61q-66 -18 -131 -18q-147 0 -230 95q-78 90 -78 240q0 143 75 244q83 113 221 113q19 0 50 -5l37 -6
q25 -4 28 -4q11 0 27.5 3t25.5 3q42 0 42 -41q0 -7 -5 -34q-9 -50 -13 -99q-5 -71 -46 -71q-21 0 -31.5 11.5t-17.5 43.5q-8 36 -17 60q-18 47 -69 47q-69 0 -106 -94q-27 -69 -27 -151q0 -112 39 -178.5t104 -66.5q27 0 64 15z" />
    <glyph glyph-name="H" unicode="H" horiz-adv-x="682" 
d="M424 327q-34 -11 -78 -22q-19 -5 -79 -11l1 -186q1 -13 17 -22l19 -8q28 -12 28 -39q0 -21 -17 -33q-12 -6 -47 -6h-164q-37 0 -47 6q-18 10 -18 33q0 24 28 39l20 8q17 9 17 38v160q-50 2 -50 40t50 40v155q-3 13 -17 20l-38 18q-19 9 -19 31q0 31 40 36l70 8
q50 6 95 27q38 18 55 18q15 0 25.5 -11t10.5 -26q0 -18 -11 -27l-29 -25l-19 -41v-174q73 5 157 37v92q0 16 -1 17q-1 13 -16 20l-38 18q-19 9 -19 31q0 31 40 36l70 8q50 6 95 27q38 18 55 18q14 0 25 -11t11 -26q0 -17 -12 -27l-29 -25l-19 -41l1 -45l1 -394q2 -16 16 -22
l20 -8q28 -11 28 -39q0 -23 -18 -33q-10 -6 -47 -6h-163q-37 0 -47 6q-18 10 -18 33q0 27 28 39l19 8q18 8 18 38v203z" />
    <glyph glyph-name="I" unicode="I" horiz-adv-x="363" 
d="M268 108q1 -13 17 -22l19 -8q28 -12 28 -39q0 -24 -17 -33q-11 -6 -47 -6h-164q-37 0 -47 6q-18 10 -18 33q0 24 28 39l20 8q17 9 17 38v395q-3 13 -17 20l-38 18q-19 9 -19 31q0 31 40 36l70 8q50 6 95 27q38 18 55 18q15 0 25.5 -11t10.5 -26q0 -18 -11 -27l-29 -25
l-19 -41z" />
    <glyph glyph-name="J" unicode="J" horiz-adv-x="495" 
d="M406 502v-244q0 -41 10 -80l10 -39q4 -16 4 -27q0 -62 -79 -97q-61 -27 -131 -27q-79 0 -142 32q-78 40 -78 112q0 45 33.5 76.5t78.5 31.5q55 0 84 -40q14 -19 14 -35q0 -7 -9 -15l-11 -10q-9 -8 -9 -20q0 -29 29 -29q22 0 30 26q3 10 3 39v346q0 16 -1 17q-1 13 -16 20
l-38 18q-19 9 -19 31q0 31 40 36l70 8q50 6 95 27q38 18 55 18q14 0 25 -11t11 -26q0 -17 -12 -27l-29 -25l-19 -41z" />
    <glyph glyph-name="K" unicode="K" horiz-adv-x="635" 
d="M267 337l1 -229q0 -13 17 -22l19 -8q28 -12 28 -39q0 -24 -17 -33q-11 -6 -47 -6h-164q-37 0 -47 6q-18 10 -18 33q0 24 28 39l20 8q17 9 17 38v213q-22 2 -31 5q-25 9 -25 39q0 17 12.5 29t31.5 12q9 0 12 -1v98q-3 13 -17 20l-38 18q-19 9 -19 31q0 31 40 36l70 8
q50 6 95 27q38 18 55 18q15 0 25.5 -11t10.5 -26q0 -18 -11 -27l-29 -25l-19 -41v-126q42 2 66 68q18 48 20 102l1 28q2 48 51 48h109q54 0 54 -39q0 -8 -3 -15q-4 -10 -34 -28q-14 -8 -23 -16q-13 -14 -32 -46l-20 -33q-29 -48 -65 -74q178 -105 223 -303q11 -49 11 -70
q0 -43 -37 -43h-181q-22 0 -36.5 12t-14.5 31q0 18 16 29l20 14q21 15 21 49q0 84 -60 154q-37 44 -86 48z" />
    <glyph glyph-name="L" unicode="L" horiz-adv-x="548" 
d="M426 0h-322q-37 0 -47 6q-18 10 -18 33q0 24 28 39l20 8q17 9 17 38v395q-3 13 -17 20l-38 18q-19 9 -19 31q0 31 40 36l70 8q50 6 95 27q38 18 55 18q15 0 25.5 -11t10.5 -26q0 -18 -11 -27l-29 -25l-19 -41v-367q0 -57 16.5 -81.5t54.5 -24.5q17 0 33 7q38 17 73 96
l17 38q17 37 46 37q19 0 31.5 -12t12.5 -29q0 -11 -3 -20l-12 -37q-13 -40 -17 -99q-5 -72 -55 -72q-21 0 -38 17z" />
    <glyph glyph-name="M" unicode="M" horiz-adv-x="761" 
d="M496 497q-37 -53 -68 -149q-29 -90 -36 -161q-3 -34 -41 -34q-23 0 -30.5 8t-9.5 31q-6 67 -29 148q-29 99 -73 164l1 -396q0 -13 17 -22l19 -8q28 -12 28 -39q0 -21 -17 -33q-12 -6 -47 -6h-103q-37 0 -47 6q-18 10 -18 33q0 24 28 39l20 8q17 9 17 38v380q-7 29 -33 37
q-44 14 -44 42q0 25 28 35l19 5q27 11 78 34l32 20q14 9 29 9q24 0 43 -15q50 -39 113 -186l9 -21q56 114 114.5 163.5t136.5 49.5q99 0 99 -47q0 -21 -19 -32l-14 -8q-26 -15 -34 -44q-5 -19 -5 -59l1 -379q2 -14 17 -22l19 -8q28 -12 28 -39q0 -23 -18 -33q-10 -6 -47 -6
h-163q-36 0 -47 6q-18 9 -18 33q0 28 28 39l20 8q17 9 17 38v373z" />
    <glyph glyph-name="N" unicode="N" horiz-adv-x="653" 
d="M207 461l2 -353q2 -16 16 -22l20 -8q28 -15 28 -39q0 -19 -18 -33q-10 -6 -47 -6h-101q-37 0 -47 6q-18 10 -18 33q0 27 29 39l19 8q17 7 17 38v380q-4 33 -33 42l-19 6q-25 8 -25 33q0 23 26 34q6 1 27 10q40 16 81 40q30 17 37 17q49 0 129 -109q58 -78 95 -154
q26 -53 47 -116v212q-2 12 -17 20l-37 18q-19 9 -19 31q0 27 40 36l35 8q16 4 58 26q36 19 56 19q14 0 24.5 -11t10.5 -26q0 -18 -11 -27l-29 -25l-19 -41v-375q0 -25 1 -42l2 -35q1 -10 2 -32l2 -25q1 -1 1 -4q0 -34 -38 -34h-100q-35 0 -41 45q-1 7 -3 23q-6 34 -25 89
q-38 106 -100 215q-28 48 -58 89z" />
    <glyph glyph-name="O" unicode="O" horiz-adv-x="610" 
d="M587 341q0 -142 -68 -238q-76 -109 -212 -109q-140 0 -216 109q-67 95 -67 241q0 165 88 256q83 86 193 86q133 0 212 -109q70 -98 70 -236zM411 346q0 117 -28.5 183t-79.5 66q-49 0 -77 -68.5t-28 -187.5q0 -253 106 -253q51 0 79 68t28 192z" />
    <glyph glyph-name="P" unicode="P" horiz-adv-x="540" 
d="M265 265l2 -157q2 -16 16 -22l20 -8q28 -15 28 -39q0 -23 -18 -33q-10 -6 -47 -6h-163q-37 0 -47 6q-18 10 -18 33q0 27 28 39l19 8q18 8 18 38v141q-57 2 -57 44q0 41 57 41v156q0 21 -8 29q-7 5 -30 13q-35 12 -35 39q0 38 72 40q34 1 98 19q14 4 52 19q53 21 86 21
q85 0 143.5 -59t58.5 -144q0 -102 -78 -163q-71 -56 -176 -56q-14 0 -21 1zM265 350q99 5 99 139q0 50 -17.5 83.5t-44.5 33.5q-37 0 -37 -58v-198z" />
    <glyph glyph-name="Q" unicode="Q" horiz-adv-x="612" 
d="M288 -6l-8 -7l-19 -20q-2 -1 -21 -20l-5 -4.5t-7 -6.5q114 35 198 35q54 0 94 -32.5t40 -85.5q0 -43 -29.5 -72.5t-72.5 -29.5t-73 31q-22 23 -22 40q0 6 7 12l9 8q5 2 5 12q0 25 -38 25q-12 0 -15 -1q-22 -2 -29 -3q-12 -3 -63 -15l-82 -20q-37 -9 -57 -9q-46 0 -46 43
q0 21 39 51l60 40q36 24 55 45q-50 27 -75 49q-109 94 -109 283q0 141 69 236q77 108 213 108q62 0 121.5 -31.5t97.5 -84.5q63 -87 63 -229q0 -144 -68 -239q-77 -108 -215 -108h-17zM268 100q6 20 6 39q0 18 -5 43l-5 25q-1 3 -1 11q0 19 12.5 31t31.5 12q26 0 42.5 -22.5
t16.5 -56.5t-13 -82q24 19 35 52q26 76 26 186q0 123 -28.5 189.5t-80.5 66.5q-49 0 -77 -67t-28 -184q0 -68 12 -132q18 -98 56 -111z" />
    <glyph glyph-name="R" unicode="R" horiz-adv-x="629" 
d="M265 263l2 -155q0 -16 16 -22l20 -8q28 -15 28 -39q0 -23 -18 -33q-10 -6 -47 -6h-163q-37 0 -47 6q-18 10 -18 33q0 27 28 39l19 8q18 8 18 38v139q-57 4 -57 44q0 18 14.5 31t34.5 13h3q2 -1 5 -1v152q-5 11 -10 20q-13 21 -28 26q-35 12 -35 39q0 36 72 40
q61 3 132 31l18 7q54 21 91 21q79 0 135.5 -59t56.5 -138q0 -110 -108 -176q125 -69 170 -140q38 -60 38 -118q0 -35 -24 -49q-13 -6 -40 -6h-138q-53 0 -53 41q0 19 25.5 38t25.5 40q0 64 -52 106q-48 38 -114 38zM265 350q27 2 43 10q56 30 56 131q0 51 -17 82.5t-45 31.5
q-16 0 -26.5 -15.5t-10.5 -38.5v-201z" />
    <glyph glyph-name="S" unicode="S" horiz-adv-x="562" 
d="M203 370q-33 17 -51 33q-56 49 -56 123q0 70 53 115t124 45q30 0 78 -10l24 -5q19 -4 35 -4q7 0 8 1l23 2h3q33 0 33 -28q-1 -7 -10 -69q-5 -35 -5 -39q-5 -37 -11 -46q-12 -17 -33 -17q-33 0 -44 62q-14 82 -74 82q-28 0 -47 -17.5t-19 -42.5q0 -32 31 -54
q25 -17 98 -54q91 -46 124 -80q55 -58 55 -140q0 -105 -83 -171q-77 -62 -184 -62q-101 0 -173 48q-82 56 -82 152q0 76 55 124q50 45 128 52zM336 301q14 -23 14 -44q0 -34 -22.5 -57.5t-54.5 -23.5q-50 0 -50 34q0 6 5 10l8 7q6 5 6 13q0 23 -30 23q-25 0 -43 -20t-18 -47
q0 -40 35.5 -68t86.5 -28q54 0 90.5 31.5t36.5 77.5t-64 92z" />
    <glyph glyph-name="T" unicode="T" horiz-adv-x="539" 
d="M349 580l1 -472q1 -13 17 -22l19 -8q29 -12 29 -39q0 -19 -18 -33q-10 -6 -47 -6h-164q-37 0 -47 6q-18 10 -18 33q0 27 29 39l19 8q17 7 17 38v398l-16 -6q-53 -20 -91 -20q-44 0 -71 24.5t-27 62.5q0 41 30.5 72t71.5 31q17 0 30 -9t13 -20q0 -4 -1 -5l-8 -10
q-5 -8 -5 -17q0 -28 34 -28q11 0 30 6q21 3 15 3l138 51q70 26 112 26q47 0 76 -26t29 -68q0 -37 -29.5 -67.5t-66.5 -30.5q-49 0 -49 24q0 4 2 10q8 23 8 33q0 32 -33 32q-10 0 -29 -10z" />
    <glyph glyph-name="U" unicode="U" horiz-adv-x="606" 
d="M526 170q0 -176 -215 -176q-221 0 -221 191v334q-1 13 -16 20l-38 18q-19 9 -19 31q0 31 40 36l69 8q50 6 95 27q38 18 55 18q15 0 25.5 -11t10.5 -26q0 -18 -11 -27l-29 -25l-19 -41v-359q0 -91 86 -91q88 0 88 91v331q-1 13 -18 20l-40 18q-21 9 -21 31q0 27 43 36
l38 8q27 6 62 24q40 21 60 21q16 0 27 -11t11 -26q0 -17 -12 -27l-31 -25l-21 -41l1 -45v-332z" />
    <glyph glyph-name="V" unicode="V" horiz-adv-x="537" 
d="M311 284l79 244q8 25 8 29q0 15 -22 27q-10 6 -19 10q-21 15 -21 36q0 37 54 37h118q56 0 56 -37q0 -22 -32.5 -43t-45.5 -59l-160 -479q-4 -13 -15 -35q-14 -20 -39 -20q-35 0 -57 62l-167 461q-6 15 -26 24l-14 6q-34 15 -34 39q0 28 23 33q7 3 45 7q71 7 135 33l27 11
q17 7 31 7q35 0 35 -35q0 -20 -28 -45t-28 -38q0 -8 5 -22z" />
    <glyph glyph-name="W" unicode="W" horiz-adv-x="749" 
d="M280 328l87 302q3 11 10 27q11 15 33 15q30 0 42 -42l88 -302l62 217q2 7 2 14q0 14 -35 38q-22 15 -22 32q0 38 52 38h119q57 0 57 -37q0 -21 -18 -33l-17 -11q-32 -20 -42 -55l-144 -481q-17 -56 -54 -56q-23 0 -37 20q-8 18 -15 41l-76 248l-68 -243q-18 -65 -59 -65
q-36 0 -56 65l-135 444q-9 30 -46 49q-33 16 -33 38t21 30q10 4 49 8q66 7 137 33l22 8q19 7 28 7q38 0 38 -34q0 -22 -34 -50l-2 -2q-20 -20 -20 -29q0 -5 2 -11l5 -16z" />
    <glyph glyph-name="X" unicode="X" horiz-adv-x="588" 
d="M349 418q50 53 50 103q0 43 -43 59l-24 9q-41 15 -41 42q0 36 50 36h140q26 0 41 -28t15 -74q0 -111 -128 -239l-8 -8l85 -167q14 -21 25 -38l42 -34q28 -23 28 -40q0 -39 -52 -39h-142q-49 0 -49 40v21q0 31 -16 61l-90 168q-72 -87 -72 -140q0 -33 51.5 -60.5
t51.5 -51.5q0 -38 -54 -38h-132q-28 0 -46 26t-18 67q0 105 97 215q21 24 63 62l11 10l-42 81q-16 31 -58 37l-21 3q-34 5 -34 35q0 17 26 34q76 49 100 78q5 5 14 16q13 13 28 13q20 0 29 -19l6 -13z" />
    <glyph glyph-name="Y" unicode="Y" horiz-adv-x="537" 
d="M316 365q33 40 46 70q16 37 16 79q0 51 -53 74q-9 4 -22 10q-18 10 -18 31q0 38 51 38h125q69 0 69 -98q0 -80 -43.5 -160t-121.5 -144l2 -157q2 -16 16 -22l20 -8q28 -15 28 -39q0 -23 -18 -33q-10 -6 -47 -6h-164q-36 0 -46 6q-18 10 -18 33q0 27 28 39l19 8
q17 7 17 38v126l-5 6q-58 69 -89 151q-8 20 -28 58q-17 24 -42 28l-18 3q-29 5 -29 39q0 27 36 46q43 23 104 76q23 20 39 20q33 0 41 -66q13 -112 53 -179q18 -30 52 -67z" />
    <glyph glyph-name="Z" unicode="Z" horiz-adv-x="524" 
d="M223 96h17q37 0 57 3q50 8 102 71l23 28q25 31 51 31q15 0 26 -10t11 -23q0 -11 -17 -48q-13 -28 -39 -120q-12 -42 -42 -42q-16 0 -33 14h-298q-68 0 -68 44q0 9 5 18l12 22l254 491q-26 2 -23 2q-24 0 -48 -10q-32 -13 -79 -70q-28 -34 -47 -34q-15 0 -26.5 11
t-11.5 25q0 10 7 25l25 54q15 31 20 52q14 54 46 54q17 0 31 -17h267q49 0 49 -33q0 -14 -11 -35z" />
    <glyph glyph-name="bracketleft" unicode="[" horiz-adv-x="264" 
d="M178 667q66 0 66 -39q0 -27 -33 -38l-23 -8q-21 -7 -21 -35v-604q1 -6 1 -16q2 -14 20 -21l23 -9q33 -13 33 -37q0 -39 -66 -39h-100q-45 0 -45 44v757q0 45 45 45h100z" />
    <glyph glyph-name="backslash" unicode="\" horiz-adv-x="328" 
d="M211 96q0 -63 -27 -125q-18 -42 -48 -70.5t-56 -28.5q-17 0 -23 11l-27 46q-9 13 -29 39q-11 14 -11 24q0 21 25 21q34 0 47 18.5t13 68.5v274h-10q-45 0 -45 32q0 18 25 34q41 27 41 68v25q0 63 43 100t114 37q58 0 105 -30q53 -34 53 -89q0 -35 -22.5 -59.5
t-54.5 -24.5q-40 0 -60 31q-7 11 -7 21q0 6 4 9l9 8q17 15 17 33q0 13 -11.5 23.5t-26.5 10.5q-41 0 -41 -56q0 -11 3 -56q-1 13 -1 -124z" />
    <glyph glyph-name="bracketright" unicode="]" horiz-adv-x="264" 
d="M186 667q44 0 44 -45v-757q0 -44 -44 -44h-100q-66 0 -66 39q0 24 33 37l23 9q18 7 19 21q1 1 1 16l1 33l-1 569q0 30 -20 37l-23 8q-33 11 -33 38q0 39 66 39h100z" />
    <glyph glyph-name="asciicircum" unicode="^" horiz-adv-x="600" 
d="M185 315h-110l175 365h100l175 -365h-110l-115 254z" />
    <glyph glyph-name="underscore" unicode="_" horiz-adv-x="500" 
d="M0 -51h500v-102h-500v102z" />
    <glyph glyph-name="grave" unicode="`" horiz-adv-x="500" 
d="M306 522q5 -10 5 -15q0 -16 -18 -16q-8 0 -32 18l-111 85q-13 10 -13 20q0 15 29 15h53q36 0 43 -16l7 -15z" />
    <glyph glyph-name="a" unicode="a" horiz-adv-x="463" 
d="M268 43q-62 -58 -125 -58q-57 0 -93.5 33t-36.5 87q0 88 109 134q-80 12 -80 86q0 58 50.5 94t131.5 36q110 0 158 -59q22 -27 22 -90v-173q0 -30 24 -48t24 -34t-43 -35q-29 -12 -59 -24q-18 -9 -30 -9q-22 0 -35 19q-6 9 -17 41zM191 266q25 11 41 20q38 22 38 57
q0 47 -54 47q-23 0 -39 -13.5t-16 -32.5q0 -26 20 -31l16 -6q5 -2 5 -9q0 -12 -11 -32zM268 228q-11 -7 -34 -21l-24 -13q-47 -25 -47 -62q0 -49 43 -49q62 0 62 94v51z" />
    <glyph glyph-name="b" unicode="b" horiz-adv-x="498" 
d="M206 401q46 61 116 61q73 0 116 -64t43 -172q0 -90 -41 -155q-47 -77 -132 -77q-53 0 -102 40q0 -34 -49 -34h-87q-29 0 -41 5q-16 9 -16 26q0 21 25 31l17 7q15 6 15 29v422q0 20 -17 29l-20 10q-16 8 -16 28q0 29 54 39q37 7 68 28q23 16 35 16q8 0 17 -4q13 -7 14 -17
q1 -3 1 -38v-210zM206 149q25 17 43 17q39 0 39 -25q0 -6 -3 -8l-10 -10q-9 -7 -9 -18q0 -23 25 -23q45 0 45 110q0 151 -73 151q-57 0 -57 -79v-115z" />
    <glyph glyph-name="c" unicode="c" horiz-adv-x="399" 
d="M271 345q-15 43 -41 43q-31 0 -51 -46t-20 -118q0 -143 70 -143q41 0 41 41q0 18 -19 27.5t-19 18.5q0 26 23 47t52 21q37 0 61 -29t24 -73q0 -69 -54 -110q-48 -37 -120 -37q-97 0 -151 68q-50 62 -50 161q0 94 49 165q55 81 145 81q24 0 52 -5l11 -2h7q3 -1 7 -1
q7 0 13 2l15 5q12 4 18 4q34 0 34 -37q0 4 -2 -27t-2 -58v-24q0 -47 -39 -47q-29 0 -40 32z" />
    <glyph glyph-name="d" unicode="d" horiz-adv-x="485" 
d="M293 43q-51 -56 -120 -56q-78 0 -121 76q-35 62 -35 146q0 99 43 169q52 84 145 84q51 0 88 -40v98q0 21 -17 29l-21 10q-16 8 -16 28q0 29 54 39q38 7 69 28q23 16 35 16q26 0 31 -21q0 -2 1 -13v-538q0 -23 15 -29l17 -7q25 -10 25 -31q0 -17 -16 -26q-12 -5 -41 -5
h-98q-38 0 -38 35v8zM293 299q-24 -15 -41 -15q-15 0 -27 7t-12 15q0 2 10.5 15.5t10.5 23.5t-7.5 17.5t-16.5 7.5q-50 0 -50 -113q0 -154 76 -154q35 0 50 33q7 15 7 56v107z" />
    <glyph glyph-name="e" unicode="e" horiz-adv-x="436" 
d="M315 252h3q48 0 76 -30.5t28 -81.5q0 -77 -62 -120q-55 -37 -135 -37q-97 0 -152.5 60.5t-55.5 166.5q0 103 57 175q62 77 163 77q52 0 96 -23.5t64 -61.5q9 -17 9 -33q0 -26 -43 -57zM168 248l68 47q33 23 33 60q0 38 -33 38q-29 0 -47.5 -39.5t-20.5 -105.5zM171 164
q9 -89 70 -89q20 0 35 14.5t15 33.5q0 28 -33 40q-13 5 -13 17q0 8 3 14q1 1 9 16q2 3 5 9z" />
    <glyph glyph-name="f" unicode="f" horiz-adv-x="328" 
d="M211 369v-273q0 -63 -27 -125q-18 -42 -48 -70.5t-56 -28.5q-17 0 -23 11l-27 46q-9 13 -29 39q-11 14 -11 24q0 21 25 21q34 0 47 18.5t13 68.5v274h-10q-45 0 -45 32q0 18 25 34q41 27 41 68v25q0 63 43 100t114 37q58 0 105 -30q53 -34 53 -89q0 -35 -22.5 -59.5
t-54.5 -24.5q-40 0 -60 31q-7 11 -7 21q0 6 4 9l9 8q17 15 17 33q0 13 -11.5 23.5t-26.5 10.5q-41 0 -41 -56q0 -6 3 -56q2 -33 2 -48h55q45 0 45 -38q0 -36 -44 -36h-58z" />
    <glyph glyph-name="g" unicode="g" horiz-adv-x="435" 
d="M294 442q-4 13 -4 25q0 34 21.5 58.5t52.5 24.5q28 0 47.5 -18.5t19.5 -44.5q0 -23 -16.5 -40t-39.5 -17q-7 0 -12 8q-8 17 -17 17q-15 0 -15 -18v-2q2 -9 6 -16q2 -2 17 -21q28 -36 28 -83q0 -68 -55 -109q-49 -37 -119 -37q-19 0 -42 5q-9 -12 -9 -18q0 -14 29 -14
q1 0 11 1h18h30q59 0 89 -11q38 -14 61.5 -51t23.5 -81q0 -85 -73 -136q-65 -46 -153 -46q-69 0 -123 29q-66 36 -66 100q0 59 64 81q-43 12 -43 42q0 14 19 39l35 46q7 9 25 43q-70 46 -70 119q0 66 53 107q48 38 116 38q39 0 91 -20zM257 304q0 39 -17.5 67t-41.5 28
q-16 0 -27 -16t-11 -39q0 -49 16.5 -81t42.5 -32q38 0 38 64v9zM140 22q39 -27 39 -48q0 -11 -7 -12l-17 -5q-11 -2 -11 -16q0 -35 64 -35q40 0 68.5 19.5t28.5 47.5q0 52 -87 50l-50 -1h-28z" />
    <glyph glyph-name="h" unicode="h" horiz-adv-x="505" 
d="M206 402q54 60 124 60q67 0 96 -47q12 -19 14 -33.5t2 -62.5v-221q0 -23 15 -29l17 -7q25 -10 25 -31q0 -18 -16 -26q-11 -5 -41 -5h-136q-22 0 -30 5q-11 9 -11 26q0 22 18 31l12 6q11 5 11 30v194q0 52 -49 52q-21 0 -36 -15.5t-15 -36.5v-194q0 -22 11 -30l12 -6
q18 -9 18 -31q0 -31 -41 -31h-136q-29 0 -41 5q-16 9 -16 26q0 21 25 31l17 7q15 6 15 29v422q0 20 -17 29l-20 10q-16 8 -16 28q0 29 54 39q34 6 68 28q25 16 35 16q8 0 17 -4q13 -7 14 -17q1 -3 1 -38v-209z" />
    <glyph glyph-name="i" unicode="i" horiz-adv-x="276" 
d="M141 665q34 0 58 -23.5t24 -57.5t-24 -58t-58 -24t-57.5 24t-23.5 58t23.5 57.5t57.5 23.5zM213 98q0 -23 15 -29l17 -7q25 -10 25 -31q0 -18 -16 -26q-11 -5 -41 -5h-136q-57 0 -57 31q0 21 25 31l17 7q15 6 15 29v211q0 21 -17 30l-20 10q-17 8 -17 28q0 28 53 39
q39 8 70 28q23 15 34 15q26 0 32 -21q0 -1 1 -10v-330z" />
    <glyph glyph-name="j" unicode="j" horiz-adv-x="225" 
d="M123 665q34 0 58 -23.5t24 -57.5t-24 -58t-58 -24t-57.5 24t-23.5 58t23.5 57.5t57.5 23.5zM193 35q0 -76 -32 -139q-43 -85 -91 -85q-19 0 -49 42q-19 30 -39 60q-9 12 -9 19q0 22 27 23q43 2 53 31q5 13 5 69l-1 254q0 22 -17 30l-20 10q-16 8 -16 28q0 12 5 18.5
t53 23.5q53 18 64 25q23 15 35 15q28 0 31 -21q1 -2 1 -31v-372z" />
    <glyph glyph-name="k" unicode="k" horiz-adv-x="491" 
d="M206 409q51 53 111 53q43 0 73 -30.5t30 -73.5q0 -66 -61 -97q60 -71 94 -153q12 -29 33 -39q28 -14 28 -36q0 -33 -40 -33h-164q-49 0 -49 33q0 13 10.5 22.5t22.5 19.5q8 7 8 23q0 35 -27 74l-34 49q-9 13 -9 24q0 15 19 20l15 4q31 8 31 39q0 17 -11.5 29t-27.5 12
q-52 0 -52 -83v-168q0 -22 11 -30l12 -6q18 -9 18 -31q0 -31 -41 -31h-136q-57 0 -57 31q0 21 25 31l17 7q15 6 15 29v422q0 20 -17 29l-20 10q-16 8 -16 28q0 29 54 39q34 6 68 28q25 16 35 16q8 0 17 -4q13 -7 14 -17q1 -3 1 -38v-202z" />
    <glyph glyph-name="l" unicode="l" horiz-adv-x="263" 
d="M199 98q0 -25 16 -29l17 -7q24 -10 24 -31q0 -31 -57 -31h-135q-57 0 -57 31q0 21 24 31l17 7q16 7 16 29l-1 422q0 21 -16 29l-21 10q-16 8 -16 28q0 29 54 39q37 7 68 28q23 16 36 16q7 0 16 -4q13 -7 14 -17q1 -3 1 -38v-513z" />
    <glyph glyph-name="m" unicode="m" horiz-adv-x="723" 
d="M213 398q48 64 117 64q72 0 106 -64q43 64 117 64q69 0 97 -52q9 -17 9 -35v-277q0 -23 15 -29l18 -7q24 -9 24 -31q0 -31 -57 -31h-135q-42 0 -42 31q0 21 18 31l13 6q11 8 11 30v183q0 62 -43 62q-45 0 -45 -63v-182q0 -25 11 -30l12 -6q18 -9 18 -31q0 -31 -41 -31
h-136q-21 0 -29 5q-12 7 -12 26q0 22 18 31l12 6q11 5 11 30v183q0 62 -44 62q-43 0 -43 -62v-183q0 -25 11 -30l12 -6q18 -9 18 -31q0 -17 -11 -26q-8 -5 -30 -5h-136q-57 0 -57 31q0 21 25 31l17 7q15 6 15 29v211q0 21 -17 30l-20 10q-17 8 -17 28q0 28 53 39q39 8 70 28
q23 15 34 15q26 0 32 -21q0 -1 1 -10v-30z" />
    <glyph glyph-name="n" unicode="n" horiz-adv-x="513" 
d="M213 400q51 62 120 62q35 0 65 -16q34 -18 45 -48q6 -17 6 -57v-243q0 -22 16 -29l17 -7q24 -10 24 -31q0 -31 -57 -31h-135q-41 0 -41 31q0 20 17 31l13 6q11 8 11 30v186q0 61 -50 61q-51 0 -51 -66v-181q0 -25 11 -30l12 -6q18 -9 18 -31q0 -17 -11 -26q-8 -5 -30 -5
h-136q-57 0 -57 31q0 21 25 31l17 7q15 6 15 29v211q0 21 -17 30l-20 10q-17 8 -17 28q0 28 53 39q39 8 70 28q23 15 34 15q26 0 32 -21q0 -1 1 -10v-28z" />
    <glyph glyph-name="o" unicode="o" horiz-adv-x="445" 
d="M428 222q0 -98 -53 -164q-56 -71 -152 -71q-95 0 -152 71q-54 65 -54 162q0 105 58.5 173.5t147.5 68.5q96 0 153 -74q52 -67 52 -166zM284 226v-1q0 151 -62 151q-59 0 -59 -151q0 -152 62 -152q59 0 59 153z" />
    <glyph glyph-name="p" unicode="p" horiz-adv-x="489" 
d="M199 28v-109q0 -22 16 -29l17 -7q24 -10 24 -31q0 -19 -15 -26q-10 -5 -42 -5h-135q-32 0 -42 5q-15 7 -15 26q0 21 24 31l17 7q16 7 16 29v390q0 22 -17 30l-21 10q-16 8 -16 28q0 12 5 18.5t53 23.5q53 18 64 25q23 15 35 15q28 0 31 -21q1 -2 1 -31v-16q49 64 115 64
q80 0 123 -80q35 -65 35 -153q0 -92 -39 -157q-47 -78 -133 -78q-58 0 -101 41zM199 140q23 18 41 18q15 0 27.5 -8.5t12.5 -18.5q0 -4 -11.5 -12.5t-11.5 -22.5q0 -24 25 -24q45 0 45 111q0 150 -72 150q-56 0 -56 -88v-105z" />
    <glyph glyph-name="q" unicode="q" horiz-adv-x="473" 
d="M292 44q-54 -57 -123 -57q-77 0 -119 75q-33 60 -33 144q0 92 43 167q51 89 136 89q60 0 96 -46q13 3 57 25q39 20 49 20q8 0 17 -6q13 -9 13 -39v-497q0 -23 15 -29l17 -7q25 -10 25 -31q0 -19 -16 -26q-11 -5 -41 -5h-136q-29 0 -41 5q-16 9 -16 26q0 21 25 31l17 7
q15 6 15 29v125zM292 292q-30 -14 -43 -14t-25.5 7.5t-12.5 18.5q0 5 8 11q14 11 14 25q0 24 -25 24q-22 0 -35 -33.5t-13 -89.5q0 -66 20.5 -104.5t55.5 -38.5q56 0 56 79v115z" />
    <glyph glyph-name="r" unicode="r" horiz-adv-x="397" 
d="M213 377q43 85 109 85q38 0 62.5 -27.5t24.5 -70.5q0 -47 -25.5 -78t-64.5 -31q-20 0 -35 9.5t-15 19.5q0 4 4 8q9 10 9 21q0 19 -20 19q-21 0 -35 -26.5t-14 -65.5v-142q0 -23 15 -29l17 -7q25 -10 25 -31q0 -18 -16 -26q-11 -5 -41 -5h-136q-29 0 -41 5q-16 9 -16 26
q0 21 25 31l17 7q15 6 15 29v211q0 21 -17 30l-20 10q-17 8 -17 28q0 28 53 39q39 8 70 28q23 15 34 15q26 0 32 -21q1 -2 1 -31v-30z" />
    <glyph glyph-name="s" unicode="s" horiz-adv-x="395" 
d="M126 223q-8 5 -22 16q-45 37 -45 94q0 55 43 93q40 36 96 36q12 0 36 -5.5t36 -5.5q5 0 15 3l16 5q10 3 15 3q26 0 26 -29q0 -11 -1 -14l-4 -38l-2 -43q-2 -36 -28 -36q-27 0 -38 36q-2 7 -8 24q-13 33 -46 33q-17 0 -29.5 -11t-12.5 -27t18 -30q14 -7 34 -16l40 -18
q117 -53 117 -148q0 -71 -52 -114.5t-137 -43.5q-71 0 -121 30q-59 35 -59 102q0 47 31 75.5t82 28.5zM181 191q11 -17 11 -30q0 -24 -15 -24q-2 0 -10 2t-11 2q-13 0 -22 -9.5t-9 -22.5q0 -23 19.5 -38t48.5 -15q30 0 49.5 16.5t19.5 41.5q0 33 -61 66q-9 5 -20 11z" />
    <glyph glyph-name="t" unicode="t" horiz-adv-x="316" 
d="M202 365v-233q0 -65 48 -65l3 1h20q31 0 31 -28q0 -26 -34.5 -41.5t-89.5 -15.5t-92 17.5t-37 43.5q0 6 2 13l6 22q7 26 7 70v216h-19q-45 0 -45 31q0 23 29 36q46 20 63 37.5t34 64t46 46.5q28 0 28 -48v-90h50q31 0 42 -5q20 -8 20 -34q0 -30 -25 -36q-8 -2 -36 -2h-51
z" />
    <glyph glyph-name="u" unicode="u" horiz-adv-x="487" 
d="M288 40q-55 -53 -117 -53q-49 0 -80 26t-31 69v3l1 17v207q0 22 -17 30l-21 10q-16 8 -16 28q0 12 5 18.5t53 23.5q53 18 64 25q23 15 35 15q28 0 31 -21q1 -2 1 -31l1 -242q0 -67 43 -67q48 0 48 67v144q0 22 -17 30l-21 10q-16 8 -16 28q0 28 54 39q37 7 69 28
q23 15 34 15q28 0 31 -21q2 -8 2 -31v-309q0 -23 15 -29l17 -7q25 -10 25 -31q0 -17 -16 -26q-12 -5 -41 -5h-91q-45 0 -45 40z" />
    <glyph glyph-name="v" unicode="v" horiz-adv-x="428" 
d="M158 374q37 88 122 88q62 0 98 -38.5t36 -103.5q0 -64 -36 -152q-32 -79 -76 -138q-22 -30 -45 -30h-56q-24 0 -31 17l-7 16l-110 254q-16 37 -39 47q-26 11 -26 31q0 18 30 31q10 5 69 51q10 8 22 8q18 0 26 -21zM254 128q65 128 65 186q0 42 -35 42q-24 0 -24 -24
q0 -8 3 -12l9 -13q1 -3 1 -4q0 -10 -14 -17.5t-32 -7.5q-13 0 -36 9z" />
    <glyph glyph-name="w" unicode="w" horiz-adv-x="628" 
d="M360 374q36 88 126 88q59 0 94 -37t35 -100q0 -136 -117 -295q-8 -11 -20 -23q-8 -7 -24 -7h-57q-26 0 -37 32l-28 79l-36 -79q-10 -21 -16.5 -26.5t-22.5 -5.5h-57q-25 0 -39 32l-115 271q-8 19 -31 30q-27 13 -27 31q0 8 43 38q51 36 55 40q13 13 23 13q19 0 26 -19
l117 -306l34 78l-41 96q-8 18 -27 29q-22 12 -26.5 17t-4.5 15q0 19 36 34q23 10 33 18q6 6 35 31q8 7 19 7q20 0 27 -19zM452 125q20 35 41 83q27 62 27 104q0 18 -10 30t-24 12q-26 0 -26 -24q0 -7 4 -11l9 -12q1 -1 1 -6q0 -23 -45 -23q-24 0 -37 10z" />
    <glyph glyph-name="x" unicode="x" horiz-adv-x="446" 
d="M309 215l72 -111q21 -32 47 -47q20 -11 20 -26q0 -31 -45 -31h-103q-47 0 -47 33v14q0 26 -8 38l-53 82q-48 -52 -48 -74q0 -11 25 -33q19 -16 19 -32q0 -28 -42 -28h-88q-51 0 -51 45q0 48 126 190l8 9l-27 43q-23 37 -73 49q-30 7 -30 28q0 11 36 36q44 30 48 35
q23 24 38 24q12 0 18 -5t21 -29l94 -143q34 34 34 52q0 16 -15 16q-2 0 -8 -1t-8 -1h-1q-5 0 -10 5q-15 15 -15 36q0 29 24.5 51t57.5 22q35 0 59.5 -23.5t24.5 -57.5q0 -46 -44 -99z" />
    <glyph glyph-name="y" unicode="y" horiz-adv-x="442" 
d="M173 371q33 91 127 91q59 0 94 -37.5t35 -100.5q0 -122 -101 -294q-124 -211 -275 -211q-55 0 -92 30t-37 75q0 36 23.5 60.5t56.5 24.5q19 0 37 -10q22 -13 22 -31q0 -5 -4 -9l-10 -8q-7 -7 -7 -15q0 -22 29 -22q41 0 83 35q35 29 35 54q0 12 -15 44l-117 249
q-1 1 -6 11q-11 21 -23 27l-14 7q-19 9 -19 26q0 11 40 39q50 34 53 37q16 16 31 16q10 0 15 -5t16 -30zM281 121q57 120 57 185q0 53 -37 53q-26 0 -26 -26q0 -8 4 -12l6 -8q4 -4 4 -9q0 -9 -13 -16t-31 -7q-17 0 -36 11z" />
    <glyph glyph-name="z" unicode="z" horiz-adv-x="374" 
d="M170 80h57q33 0 62 50q32 56 52 56q29 0 29 -30q0 -3 -2 -13q-14 -29 -36 -127q-6 -29 -30 -29q-15 0 -28 13h-232q-38 0 -38 25q0 19 10 33l183 311h-36q-16 0 -23.5 -6t-21.5 -29q-20 -33 -23 -37q-17 -22 -35 -22q-27 0 -27 24q0 7 12 42q14 39 16 49l8 40q6 28 27 28
q15 0 28 -15h206q34 0 34 -21q0 -9 -11 -28z" />
    <glyph glyph-name="braceleft" unicode="{" horiz-adv-x="308" 
d="M214 107v-169q0 -113 74 -130v-16q-108 0 -146 27q-44 31 -44 125v179q0 56 -16 83t-60 41q45 14 62 46q14 26 14 78v180q0 94 44 125q38 27 146 27v-16q-74 -17 -74 -130v-170q0 -61 -15 -91q-17 -35 -66 -48v-2q49 -13 66 -48q15 -30 15 -91z" />
    <glyph glyph-name="bar" unicode="|" horiz-adv-x="222" 
d="M61 -249v999h100v-999h-100z" />
    <glyph glyph-name="braceright" unicode="}" horiz-adv-x="308" 
d="M96 107v-169q0 -113 -74 -130v-16q108 0 146 27q44 31 44 125v179q0 56 16 83t60 41q-45 14 -62 46q-14 26 -14 78v180q0 94 -44 125q-38 27 -146 27v-16q74 -17 74 -130v-170q0 -61 15 -91q17 -35 66 -48v-2q-49 -13 -66 -48q-15 -30 -15 -91z" />
    <glyph glyph-name="asciitilde" unicode="~" horiz-adv-x="600" 
d="M105 168l-36 85q45 85 120 85q45 0 116 -31q66 -29 102 -29q42 0 88 60l36 -85q-45 -85 -120 -85q-45 0 -116 31q-66 29 -102 29q-41 0 -88 -60z" />
    <glyph glyph-name="exclamdown" unicode="&#xa1;" horiz-adv-x="321" 
d="M171 689q39 0 66.5 -27.5t27.5 -66.5t-27.5 -66.5t-66.5 -27.5t-66.5 27.5t-27.5 66.5t27.5 66.5t66.5 27.5zM169 -18q-40 0 -65.5 30t-25.5 77q0 23 15 88q24 103 24 158q0 18 -2 54t-2 30q0 25 16 42t39 17q24 0 40 -16.5t16 -41.5l-2 -24t-2 -43q0 -62 26 -171
q17 -71 17 -102q0 -43 -26.5 -70.5t-67.5 -27.5z" />
    <glyph glyph-name="cent" unicode="&#xa2;" 
d="M307 562l10 -2l14 -2q14 -2 17 -2q11 0 12 1l14 6q7 3 18 3q34 0 34 -34q0 -1 -1 -3l-2 -26q-2 -26 -2 -55q0 -8 1 -10q0 -8 1 -12v-8q0 -17 -11 -29t-27 -12q-13 0 -22 7q-13 10 -28 54q-17 49 -45 49q-29 0 -47 -43t-18 -115q0 -141 65 -141q17 0 29 12t12 29
q0 20 -17 28l-11 3q-10 4 -10 14q0 27 22 47t52 20q36 0 60 -28t24 -71q0 -121 -144 -147v-71q0 -32 -29 -32t-29 32v71q-77 13 -121.5 73.5t-44.5 152.5q0 87 40 153q46 76 126 87v38q0 33 29 33t29 -33v-37z" />
    <glyph glyph-name="sterling" unicode="&#xa3;" 
d="M284 386h70q39 0 39 -30q0 -29 -39 -29h-50l4 -12q23 -69 23 -113q0 -39 -16 -78l8 -3l22 -10q15 -7 28 -7q23 0 23 20q0 8 -5 13l-14 15q-5 8 -5 11q0 13 18 23t40 10q39 0 66 -28t27 -68q0 -46 -35 -76t-82 -30q-56 0 -136 54q-59 -56 -136 -56q-53 0 -88.5 30
t-35.5 76q0 42 31.5 70.5t77.5 28.5q35 0 80 -19q-5 38 -25 97q-13 39 -20 52h-58q-34 0 -34 30q0 29 29 29h41q-26 61 -26 108q0 81 60 133q57 50 139 50q64 0 111 -30q56 -35 56 -95q0 -38 -25 -63t-62 -25q-21 0 -40 10q-33 17 -33 36q0 5 3 6l11 10q12 9 12 27
q0 35 -36 35q-24 0 -38.5 -19t-14.5 -50q0 -55 35 -133zM182 108q-37 17 -57 17q-35 0 -35 -26q0 -25 35 -25q38 0 57 34z" />
    <glyph glyph-name="currency" unicode="&#xa4;" horiz-adv-x="592" 
d="M36 151l55 54q-46 55 -46 145q0 93 46 145l-54 54l61 61l55 -55q52 43 143 43q90 0 139 -41l57 55l64 -64l-55 -56q47 -45 47 -142q0 -89 -47 -145l54 -54l-58 -58l-54 56q-53 -47 -147 -47q-93 0 -145 46l-56 -56zM438 350q0 63 -40 105.5t-102 42.5q-63 0 -102 -42.5
t-39 -105.5t39 -105.5t102 -42.5t102.5 42t39.5 106z" />
    <glyph glyph-name="yen" unicode="&#xa5;" 
d="M342 265h108q35 0 35 -29q0 -30 -35 -30h-108v-69l1 -13v-16q2 -14 14 -22l16 -8q23 -11 23 -39q0 -21 -14 -33q-10 -6 -39 -6h-136q-31 0 -39 6q-14 10 -14 33q0 28 23 39l16 8q14 9 14 38v82h-108q-34 0 -34 30q0 29 34 29h98l-6 8q-13 17 -32 54h-89q-34 0 -34 29
t34 29h64q-4 9 -11 33l-8 27q-18 59 -52 66l-15 3q-26 5 -26 37q0 22 29 40q22 14 46 32q14 11 42 36q20 18 34 18q19 0 27 -14t12 -52q12 -113 45 -179q18 -36 44 -67q60 71 60 148q0 54 -46 75q-11 5 -19 10q-16 10 -16 31q0 38 42 38h103q62 0 62 -98q0 -89 -51 -184h43
q35 0 35 -29t-35 -29h-81q-27 -35 -56 -62z" />
    <glyph glyph-name="brokenbar" unicode="&#xa6;" horiz-adv-x="222" 
d="M61 -174v349h100v-349h-100zM61 325v350h100v-350h-100z" />
    <glyph glyph-name="section" unicode="&#xa7;" horiz-adv-x="432" 
d="M121 680h192q86 0 86 -45q0 -20 -37.5 -43t-37.5 -36q0 -15 16 -32q-64 0 -64 40q0 9 10 26.5t10 22.5q0 21 -91 21q-39 0 -51 -2q-33 -5 -33 -29q0 -56 75 -104q47 -28 141 -86q75 -58 75 -139q0 -73 -80 -135q62 -53 62 -123q0 -56 -29 -89.5t-73 -33.5q-13 0 -46.5 1
t-41.5 1q-13 0 -42.5 -1t-34.5 -1q-38 0 -67 32t-29 70q0 42 15.5 68.5t42.5 26.5q9 0 27 -12t27 -12q5 0 12 5q0 -33 -22 -40q-27 -12 -27 -41q0 -30 29 -40q17 -6 74 -6q59 0 77 8q28 12 28 52q0 43 -76 84q-125 68 -142 81q-76 59 -76 142q0 93 79 142q-66 68 -66 151
q0 76 88 76zM332 239q0 60 -71 108q-41 25 -123 74q-43 -28 -43 -77q0 -66 125 -132q63 -34 75 -43q37 28 37 70z" />
    <glyph glyph-name="dieresis" unicode="&#xa8;" horiz-adv-x="500" 
d="M352 627q28 0 48 -20t20 -48t-20 -47.5t-48 -19.5t-48 19.5t-20 47.5q0 29 20 48.5t48 19.5zM148 627q29 0 48.5 -19.5t19.5 -48.5q0 -28 -20 -47.5t-48 -19.5t-48 19.5t-20 47.5t20 48t48 20z" />
    <glyph glyph-name="copyright" unicode="&#xa9;" horiz-adv-x="644" 
d="M445 537v-65h-22q-18 70 -78 70q-84 0 -84 -136q0 -149 74 -149q75 0 103 75h21l-14 -71q-47 -26 -117 -26q-79 0 -124 44t-45 123q0 63 35 108q43 55 125 55q104 0 126 -28zM91 392q0 -97 66.5 -164t163.5 -67q96 0 163 67.5t67 163.5q0 95 -67.5 162.5t-162.5 67.5
q-96 0 -163 -67t-67 -163zM30 392q0 121 85 206t206 85t206 -85t85 -206q0 -122 -84.5 -206.5t-206.5 -84.5t-206.5 84.5t-84.5 206.5z" />
    <glyph glyph-name="guillemotleft" unicode="&#xab;" horiz-adv-x="396" 
d="M305 214l51 -142q7 -19 7 -31q0 -21 -21 -21q-14 0 -31 22l-89 115q-22 28 -22 57q0 28 22 56l89 115q17 22 31 22q21 0 21 -21q0 -11 -7 -30zM138 214l51 -142q7 -19 7 -31q0 -21 -21 -21q-14 0 -31 22l-89 115q-22 28 -22 57q0 28 22 56l89 115q17 22 31 22
q21 0 21 -21q0 -11 -7 -30z" />
    <glyph glyph-name="logicalnot" unicode="&#xac;" horiz-adv-x="269" 
d="M20 660q-1 3 -1 11q0 33 33 33q26 0 33 -29l2 -8l162 -699q0 -2 1 -6v-6q0 -32 -33 -32q-25 0 -33 29l-2 7z" />
    <glyph glyph-name="registered" unicode="&#xae;" horiz-adv-x="644" 
d="M184 537v18h167q96 0 96 -82q0 -66 -68 -83l30 -58q34 -66 65 -66v-22h-77q-15 0 -45 59q-12 26 -37 77h-20v-82q0 -21 8.5 -26.5t26.5 -5.5v-22h-146v22q20 0 27.5 6.5t7.5 25.5v207q0 19 -5.5 24.5t-29.5 7.5zM295 533v-131h21q43 0 43 73q0 58 -40 58h-24zM91 392
q0 -97 66.5 -164t163.5 -67q96 0 163 67.5t67 163.5q0 95 -67.5 162.5t-162.5 67.5q-96 0 -163 -67t-67 -163zM30 392q0 121 85 206t206 85t206 -85t85 -206q0 -122 -84.5 -206.5t-206.5 -84.5t-206.5 84.5t-84.5 206.5z" />
    <glyph glyph-name="degree" unicode="&#xb0;" horiz-adv-x="400" 
d="M121 537q0 -33 23 -56t56 -23t56 23t23 56t-23 56t-56 23t-56 -23t-23 -56zM51 537q0 61 44 105t105 44t105 -44t44 -105t-44 -105t-105 -44t-105 44t-44 105z" />
    <glyph glyph-name="plusminus" unicode="&#xb1;" horiz-adv-x="600" 
d="M250 375v130h100v-130h202v-100h-202v-131h-100v131h-202v100h202zM48 0v100h504v-100h-504z" />
    <glyph glyph-name="acute" unicode="&#xb4;" horiz-adv-x="500" 
d="M245 613q8 16 42 16h54q29 0 29 -15q0 -9 -14 -20l-111 -85q-24 -18 -32 -18q-17 0 -17 16q0 8 4 15l7 13z" />
    <glyph glyph-name="paragraph" unicode="&#xb6;" horiz-adv-x="620" 
d="M211 -100v369q-77 0 -121.5 58t-44.5 155q0 105 54 151.5t176 46.5h298v-40q-75 0 -75 -65v-675q0 -75 75 -75v-40h-175v855h-87v-855h-180v40q36 0 58 20t22 55z" />
    <glyph glyph-name="periodcentered" unicode="&#xb7;" horiz-adv-x="348" 
d="M174 483q44 0 76 -32t32 -76q0 -45 -31.5 -76t-76.5 -31t-76 31t-31 76t31 76.5t76 31.5z" />
    <glyph glyph-name="periodcentered" unicode="&#x2219;" horiz-adv-x="348" 
d="M174 483q44 0 76 -32t32 -76q0 -45 -31.5 -76t-76.5 -31t-76 31t-31 76t31 76.5t76 31.5z" />
    <glyph glyph-name="guillemotright" unicode="&#xbb;" horiz-adv-x="396" 
d="M258 214l-51 142q-7 19 -7 30q0 21 21 21q14 0 31 -22l89 -115q22 -28 22 -56q0 -29 -22 -57l-89 -115q-17 -22 -31 -22q-21 0 -21 21q0 12 7 31zM91 214l-51 142q-7 19 -7 30q0 21 21 21q15 0 32 -22l88 -115q22 -29 22 -56q0 -28 -22 -57l-88 -115q-17 -22 -32 -22
q-21 0 -21 21q0 12 7 31z" />
    <glyph glyph-name="onequarter" unicode="&#xbc;" horiz-adv-x="633" 
d="M211 96q0 -63 -27 -125q-18 -42 -48 -70.5t-56 -28.5q-17 0 -23 11l-27 46q-9 13 -29 39q-11 14 -11 24q0 21 25 21q34 0 47 18.5t13 68.5v274h-10q-45 0 -45 32q0 18 25 34q41 27 41 68v25q0 63 43 100t114 37q56 0 98.5 -25t54.5 -65q32 90 150 90q58 0 105 -30
q53 -34 53 -89q0 -35 -22.5 -59.5t-54.5 -24.5q-40 0 -60 31q-7 11 -7 21q0 6 4 9l9 8q17 15 17 33q0 13 -11.5 23.5t-26.5 10.5q-41 0 -41 -56l1.5 -19t1.5 -37q1 -20 0 -57q-1 -46 -1 -67l1 -271q0 -63 -27 -125q-18 -42 -48 -70.5t-56 -28.5q-17 0 -23 11l-27 46l-7 11
q-34 46 -34 52q0 21 26 21q34 0 47 18.5t13 68.5v274h-10q-45 0 -45 32q0 18 25 34q39 26 41 65q-23 -38 -65 -38q-40 0 -60 31q-7 11 -7 21q0 6 4 9l9 8q17 15 17 33q0 13 -11.5 23.5t-26.5 10.5q-41 0 -41 -56l1.5 -19t1.5 -37q1 -20 0 -57q-1 -46 -1 -67z" />
    <glyph glyph-name="onehalf" unicode="&#xbd;" horiz-adv-x="1168" 
d="M211 96q0 -63 -27 -125q-18 -42 -48 -70.5t-56 -28.5q-17 0 -23 11l-27 46q-9 13 -29 39q-11 14 -11 24q0 21 25 21q34 0 47 18.5t13 68.5v274h-10q-45 0 -45 32q0 18 25 34q41 27 41 68v25q0 63 43 100t114 37q58 0 105 -30q53 -34 53 -89q0 -35 -22.5 -59.5
t-54.5 -24.5q-40 0 -60 31q-7 11 -7 21q0 6 4 9l9 8q17 15 17 33q0 13 -11.5 23.5t-26.5 10.5q-41 0 -41 -56q0 -11 3 -56q-1 13 -1 -124zM563 345q-15 43 -41 43q-31 0 -51 -46t-20 -118q0 -143 70 -143q41 0 41 41q0 18 -19 27.5t-19 18.5q0 26 23 47t52 21q37 0 61 -29
t24 -73q0 -69 -54 -110q-48 -37 -120 -37q-97 0 -151 68q-50 62 -50 161q0 94 49 165q55 81 145 81q24 0 52 -5l11 -2h7q3 -1 7 -1q7 0 13 2l15 5q12 4 18 4q34 0 34 -37q0 4 -2 -27t-2 -58v-24q0 -47 -39 -47q-29 0 -40 32zM866 402q54 60 124 60q67 0 96 -47
q12 -19 14 -33.5t2 -62.5v-221q0 -23 15 -29l17 -7q25 -10 25 -31q0 -18 -16 -26q-11 -5 -41 -5h-136q-22 0 -30 5q-11 9 -11 26q0 22 18 31l12 6q11 5 11 30v194q0 52 -49 52q-21 0 -36 -15.5t-15 -36.5v-194q0 -22 11 -30l12 -6q18 -9 18 -31q0 -31 -41 -31h-136
q-29 0 -41 5q-16 9 -16 26q0 21 25 31l17 7q15 6 15 29v422q0 21 -17 29l-20 10q-16 8 -16 28q0 29 54 39q34 6 68 28q25 16 35 16q8 0 17 -4q13 -7 14 -17q1 -3 1 -38v-209z" />
    <glyph glyph-name="questiondown" unicode="&#xbf;" horiz-adv-x="378" 
d="M212 689q39 0 66.5 -27.5t27.5 -66.5t-27.5 -66.5t-66.5 -27.5t-66.5 27.5t-27.5 66.5t27.5 66.5t66.5 27.5zM213 132q-3 5 -3 9q0 22 26 39q23 15 47 15q36 0 61 -25.5t25 -62.5q0 -59 -59 -95q-50 -30 -113 -30q-68 0 -114 37q-50 39 -50 106q0 45 27 82q19 25 63 60.5
t44 66.5q0 12 -9.5 39.5t-9.5 42.5q0 25 18 43t43 18q33 0 54.5 -31t21.5 -79q0 -53 -54 -135q-4 -10 -34 -52q-22 -32 -22 -57q0 -32 26 -32q22 0 22 22q0 5 -3 11z" />
    <glyph glyph-name="Agrave" unicode="&#xc0;" horiz-adv-x="609" 
d="M365 161q-39 -19 -97 -19q-50 0 -103 19l-14 -35q-4 -10 -4 -16q0 -16 17 -25l18 -10q26 -14 26 -38q0 -16 -14 -26.5t-35 -10.5h-134q-44 0 -44 37q0 17 30 39q34 26 43 50l26 68q-28 13 -28 37q0 38 38 38q10 0 19 -3l95 231q7 17 7 27q0 18 -18 27l-19 10
q-18 9 -18 30q0 22 40 35q34 11 77 37q23 14 37 14q26 0 43 -42l218 -527q7 -18 32.5 -32t25.5 -36q0 -40 -62 -40h-195q-50 0 -50 39q0 24 19 33q5 3 19 10q21 11 21 25q0 11 -3 19zM320 759l7 -13q4 -7 4 -15q0 -15 -17 -15q-10 0 -32 17l-111 85q-14 11 -14 20
q0 15 29 15h54q36 0 43 -16l7 -15zM268 410l-73 -175l10 -3q30 -9 59 -9q35 0 71 14z" />
    <glyph glyph-name="Aacute" unicode="&#xc1;" horiz-adv-x="609" 
d="M365 161q-39 -19 -97 -19q-50 0 -103 19l-14 -35q-4 -10 -4 -16q0 -16 17 -25l18 -10q26 -14 26 -38q0 -16 -14 -26.5t-35 -10.5h-134q-44 0 -44 37q0 17 30 39q34 26 43 50l26 68q-28 13 -28 37q0 38 38 38q10 0 19 -3l95 231q7 17 7 27q0 18 -18 27l-19 10
q-18 9 -18 30q0 22 40 35q34 11 77 37q23 14 37 14q26 0 43 -42l218 -527q7 -18 32.5 -32t25.5 -36q0 -40 -62 -40h-195q-50 0 -50 39q0 24 19 33q5 3 19 10q21 11 21 25q0 11 -3 19zM293 837q8 16 42 16h54q29 0 29 -15q0 -9 -14 -20l-111 -85q-22 -17 -32 -17
q-17 0 -17 15q0 8 4 15l7 13zM268 410l-73 -175l10 -3q30 -9 59 -9q35 0 71 14z" />
    <glyph glyph-name="Acircumflex" unicode="&#xc2;" horiz-adv-x="609" 
d="M365 161q-39 -19 -97 -19q-50 0 -103 19l-14 -35q-4 -10 -4 -16q0 -16 17 -25l18 -10q26 -14 26 -38q0 -16 -14 -26.5t-35 -10.5h-134q-44 0 -44 37q0 17 30 39q34 26 43 50l26 68q-28 13 -28 37q0 38 38 38q10 0 19 -3l95 231q7 17 7 27q0 18 -18 27l-19 10
q-18 9 -18 30q0 22 40 35q34 11 77 37q23 14 37 14q26 0 43 -42l218 -527q7 -18 32.5 -32t25.5 -36q0 -40 -62 -40h-195q-50 0 -50 39q0 24 19 33q5 3 19 10q21 11 21 25q0 11 -3 19zM301 768l-96 -49q-4 -3 -9 -3q-19 0 -19 18q0 7 9 19l64 83q26 34 51 34t51 -34l64 -83
q9 -12 9 -19q0 -18 -19 -18q-4 0 -9 3l-17 9zM268 410l-73 -175l10 -3q30 -9 59 -9q35 0 71 14z" />
    <glyph glyph-name="Atilde" unicode="&#xc3;" horiz-adv-x="609" 
d="M365 161q-39 -19 -97 -19q-50 0 -103 19l-14 -35q-4 -10 -4 -16q0 -16 17 -25l18 -10q26 -14 26 -38q0 -16 -14 -26.5t-35 -10.5h-134q-44 0 -44 37q0 17 30 39q34 26 43 50l26 68q-28 13 -28 37q0 38 38 38q10 0 19 -3l95 231q7 17 7 27q0 18 -18 27l-19 10
q-18 9 -18 30q0 22 40 35q34 11 77 37q23 14 37 14q26 0 43 -42l218 -527q7 -18 32.5 -32t25.5 -36q0 -40 -62 -40h-195q-50 0 -50 39q0 24 19 33q5 3 19 10q21 11 21 25q0 11 -3 19zM313 822q15 -5 24 -5q11 0 32.5 8.5t24.5 8.5q23 0 23 -26q0 -16 -15.5 -36t-37.5 -31
q-18 -9 -37 -9q-15 0 -41 10t-38 10q-9 0 -28 -9q-15 -7 -23 -7q-22 0 -22 25q0 11 8 25q28 48 80 48q14 0 26 -4zM268 410l-73 -175l10 -3q30 -9 59 -9q35 0 71 14z" />
    <glyph glyph-name="Adieresis" unicode="&#xc4;" horiz-adv-x="609" 
d="M365 161q-39 -19 -97 -19q-50 0 -103 19l-14 -35q-4 -10 -4 -16q0 -16 17 -25l18 -10q26 -14 26 -38q0 -16 -14 -26.5t-35 -10.5h-134q-44 0 -44 37q0 17 30 39q34 26 43 50l26 68q-28 13 -28 37q0 38 38 38q10 0 19 -3l95 231q7 17 7 27q0 18 -18 27l-19 10
q-18 9 -18 30q0 22 40 35q34 11 77 37q23 14 37 14q26 0 43 -42l218 -527q7 -18 32.5 -32t25.5 -36q0 -40 -62 -40h-195q-50 0 -50 39q0 24 19 33q5 3 19 10q21 11 21 25q0 11 -3 19zM403 851q28 0 48 -19.5t20 -47.5t-20 -48t-48 -20t-48 20t-20 48t20 47.5t48 19.5z
M199 851q28 0 48 -19.5t20 -47.5t-19.5 -48t-48.5 -20q-28 0 -48 19.5t-20 47.5t20 48t48 20zM268 410l-73 -175l10 -3q30 -9 59 -9q35 0 71 14z" />
    <glyph glyph-name="Aring" unicode="&#xc5;" horiz-adv-x="609" 
d="M365 161q-39 -19 -97 -19q-50 0 -103 19l-14 -35q-4 -10 -4 -16q0 -16 17 -25l18 -10q26 -14 26 -38q0 -16 -14 -26.5t-35 -10.5h-134q-44 0 -44 37q0 17 30 39q34 26 43 50l26 68q-28 13 -28 37q0 38 38 38q10 0 19 -3l95 231q7 17 7 27q0 18 -18 27l-19 10
q-18 9 -18 30q0 22 40 35q34 11 77 37q23 14 37 14q26 0 43 -42l218 -527q7 -18 32.5 -32t25.5 -36q0 -40 -62 -40h-195q-50 0 -50 39q0 24 19 33q5 3 19 10q21 11 21 25q0 11 -3 19zM297 888q36 0 61.5 -25.5t25.5 -61.5t-26 -62t-61 -26q-36 0 -62 26t-26 62t25.5 61.5
t62.5 25.5zM268 410l-73 -175l10 -3q30 -9 59 -9q35 0 71 14zM297 749q25 0 27 53q1 52 -27 52q-27 0 -27 -52q0 -53 27 -53z" />
    <glyph glyph-name="AE" unicode="&#xc6;" horiz-adv-x="809" 
d="M516 584v-188l35 4q8 38 38 38q29 0 37 -42q1 -7 4 -26q2 -9 16 -61q12 -42 12 -59q0 -14 -11.5 -25t-27.5 -11q-27 0 -41 55q-12 48 -42 48q-8 0 -20 -4v-163q0 -78 59 -78q41 0 69 33q18 20 39 69q18 42 22 47q16 26 41 26q17 0 30 -12t13 -27q0 -11 -7 -32
q-22 -68 -27 -122q-1 -16 -6 -42q-12 -32 -48 -32q-16 0 -42 20h-306q-37 0 -47 6q-18 10 -18 33q0 24 28 39l20 8q17 9 17 38v59q-20 -2 -35 -2q-69 0 -111 14l-25 -52l-8 -14q-5 -13 -5 -17q0 -14 37 -36q25 -15 25 -38q0 -38 -55 -38h-126q-56 0 -56 40q0 19 22 35
q19 13 37 26q14 14 24 35l43 91q-25 13 -25 37q0 17 11.5 28t27.5 11q4 0 19 -5l98 199q11 22 11 40q0 12 -8 23l-13 18q-4 6 -4 15q0 35 53 35q71 0 152 24l81 24q34 10 67 10q39 0 89 -29q19 22 42 22q38 0 38 -36q0 -7 -2 -19l-6 -36l-6 -49l-3 -49q-3 -43 -39 -43
t-50 62q-7 31 -7 32q-16 60 -67 60q-24 0 -63 -17zM353 497l-111 -229q35 -9 80 -9q-3 0 31 2v236z" />
    <glyph glyph-name="Ccedilla" unicode="&#xc7;" horiz-adv-x="596" 
d="M346 -3l-12 -38q11 3 21 3q22 0 37 -18t15 -45q0 -37 -25 -60t-65 -23q-30 0 -51 15t-21 37q0 13 11 23.5t24 10.5q17 0 17 -11v-8q0 -24 19 -24q24 0 24 30q0 29 -29 29h-9q-11 0 -18 -2q-18 0 -18 18q0 5 13 36q5 12 11 27q-127 3 -201 111q-65 95 -65 228
q0 152 70 246q79 104 226 104q24 0 74 -9q17 -3 31 -3q6 0 28 3t28 3q18 0 30 -12t12 -30q0 -12 -2 -22l-8 -38q-6 -27 -7 -79q-2 -62 -47 -62q-35 0 -44 45l-4 13q-1 7 -8 28q-3 12 -12 34q-15 39 -60 39q-72 0 -108 -95q-26 -68 -26 -155q0 -81 27 -151q36 -94 104 -94
q24 0 41.5 16.5t17.5 38.5q0 27 -28 43q-18 10 -18 25q0 38 36 65t75 27q53 0 88.5 -35t35.5 -89q0 -84 -75 -141q-68 -51 -155 -54z" />
    <glyph glyph-name="Egrave" unicode="&#xc8;" horiz-adv-x="558" 
d="M265 582v-189l36 5q2 39 38 39q31 0 37 -43q1 -8 4 -24q0 -20 13.5 -60.5t13.5 -57.5q0 -38 -37 -38q-20 0 -31 17q-4 6 -12 36q-13 49 -41 49q-4 0 -21 -3v-166q0 -77 60 -77q62 0 106 101l17 39q16 37 45 37q44 0 44 -39q0 -12 -3 -21l-12 -36q-5 -23 -11 -52
q-10 -47 -10 -77q-7 -42 -49 -42q-25 0 -45 20h-304q-37 0 -47 6q-18 10 -18 33q0 27 28 39l19 8q18 8 18 38v185q-18 0 -31 3q-34 8 -34 41q0 40 58 40h7v109q0 -8 -5 1q-10 21 -13 25q-10 17 -20 20q-35 12 -35 39t26 34q12 3 46 6q19 2 52 10t46 12l74 24q40 13 65 13
q49 0 89 -32q18 24 42 24q15 0 26 -11.5t11 -26.5q0 -3 -2 -13l-7 -34l-5 -52l-2 -51q-2 -48 -43 -48q-28 0 -39 33q-1 1 -6 29q-1 4 -9 32q-1 8 -7 24q-14 40 -60 40q-21 0 -62 -18zM332 746q4 -11 4 -15q0 -15 -18 -15q-9 0 -31 17l-112 85q-13 10 -13 20q0 15 29 15h53
q36 0 43 -16l7 -15z" />
    <glyph glyph-name="Eacute" unicode="&#xc9;" horiz-adv-x="558" 
d="M265 582v-189l36 5q2 39 38 39q31 0 37 -43q1 -8 4 -24q0 -20 13.5 -60.5t13.5 -57.5q0 -38 -37 -38q-20 0 -31 17q-4 6 -12 36q-13 49 -41 49q-4 0 -21 -3v-166q0 -77 60 -77q62 0 106 101l17 39q16 37 45 37q44 0 44 -39q0 -12 -3 -21l-12 -36q-5 -23 -11 -52
q-10 -47 -10 -77q-7 -42 -49 -42q-25 0 -45 20h-304q-37 0 -47 6q-18 10 -18 33q0 27 28 39l19 8q18 8 18 38v185q-18 0 -31 3q-34 8 -34 41q0 40 58 40h7v109q0 -8 -5 1q-10 21 -13 25q-10 17 -20 20q-35 12 -35 39t26 34q12 3 46 6q19 2 52 10t46 12l74 24q40 13 65 13
q49 0 89 -32q18 24 42 24q15 0 26 -11.5t11 -26.5q0 -3 -2 -13l-7 -34l-5 -52l-2 -51q-2 -48 -43 -48q-28 0 -39 33q-1 1 -6 29q-1 4 -9 32q-1 8 -7 24q-14 40 -60 40q-21 0 -62 -18zM267 837q8 16 43 16h53q29 0 29 -15q0 -10 -13 -20l-111 -85q-22 -17 -32 -17q-7 0 -11 4
q-7 4 -7 11q0 4 5 15l6 13z" />
    <glyph glyph-name="Ecircumflex" unicode="&#xca;" horiz-adv-x="558" 
d="M265 582v-189l36 5q2 39 38 39q31 0 37 -43q1 -8 4 -24q0 -20 13.5 -60.5t13.5 -57.5q0 -38 -37 -38q-20 0 -31 17q-4 6 -12 36q-13 49 -41 49q-4 0 -21 -3v-166q0 -77 60 -77q62 0 106 101l17 39q16 37 45 37q44 0 44 -39q0 -12 -3 -21l-12 -36q-5 -23 -11 -52
q-10 -47 -10 -77q-7 -42 -49 -42q-25 0 -45 20h-304q-37 0 -47 6q-18 10 -18 33q0 27 28 39l19 8q18 8 18 38v185q-18 0 -31 3q-34 8 -34 41q0 40 58 40h7v109q0 -8 -5 1q-10 21 -13 25q-10 17 -20 20q-35 12 -35 39t26 34q12 3 46 6q19 2 52 10t46 12l74 24q40 13 65 13
q49 0 89 -32q18 24 42 24q15 0 26 -11.5t11 -26.5q0 -3 -2 -13l-7 -34l-5 -52l-2 -51q-2 -48 -43 -48q-28 0 -39 33q-1 1 -6 29q-1 4 -9 32q-1 8 -7 24q-14 40 -60 40q-21 0 -62 -18zM279 768l-96 -49q-4 -3 -10 -3q-18 0 -18 18q0 7 9 19l64 83q26 34 51 34q23 0 50 -34
l65 -83q9 -11 9 -19q0 -18 -19 -18q-5 0 -10 3l-17 9z" />
    <glyph glyph-name="Edieresis" unicode="&#xcb;" horiz-adv-x="558" 
d="M265 582v-189l36 5q2 39 38 39q31 0 37 -43q1 -8 4 -24q0 -20 13.5 -60.5t13.5 -57.5q0 -38 -37 -38q-20 0 -31 17q-4 6 -12 36q-13 49 -41 49q-4 0 -21 -3v-166q0 -77 60 -77q62 0 106 101l17 39q16 37 45 37q44 0 44 -39q0 -12 -3 -21l-12 -36q-5 -23 -11 -52
q-10 -47 -10 -77q-7 -42 -49 -42q-25 0 -45 20h-304q-37 0 -47 6q-18 10 -18 33q0 27 28 39l19 8q18 8 18 38v185q-18 0 -31 3q-34 8 -34 41q0 40 58 40h7v109q0 -8 -5 1q-10 21 -13 25q-10 17 -20 20q-35 12 -35 39t26 34q12 3 46 6q19 2 52 10t46 12l74 24q40 13 65 13
q49 0 89 -32q18 24 42 24q15 0 26 -11.5t11 -26.5q0 -3 -2 -13l-7 -34l-5 -52l-2 -51q-2 -48 -43 -48q-28 0 -39 33q-1 1 -6 29q-1 4 -9 32q-1 8 -7 24q-14 40 -60 40q-21 0 -62 -18zM381 851q28 0 48 -19.5t20 -47.5t-20 -48t-48 -20t-48 20t-20 48t20 47.5t48 19.5z
M177 851q28 0 48 -19.5t20 -47.5t-20 -48t-48 -20t-48 19.5t-20 47.5q0 29 20 48.5t48 19.5z" />
    <glyph glyph-name="Igrave" unicode="&#xcc;" horiz-adv-x="363" 
d="M268 108q1 -13 17 -22l19 -8q28 -12 28 -39q0 -24 -17 -33q-11 -6 -47 -6h-164q-37 0 -47 6q-18 10 -18 33q0 24 28 39l20 8q17 9 17 38v395q-3 13 -17 20l-38 18q-19 9 -19 31q0 31 40 36l70 8q50 6 95 27q38 18 55 18q15 0 25.5 -11t10.5 -26q0 -18 -11 -27l-29 -25
l-19 -41zM227 759l7 -13q4 -7 4 -15q0 -15 -17 -15q-10 0 -32 17l-111 85q-14 11 -14 20q0 15 29 15h54q36 0 43 -16l7 -15z" />
    <glyph glyph-name="Iacute" unicode="&#xcd;" horiz-adv-x="363" 
d="M268 108q1 -13 17 -22l19 -8q28 -12 28 -39q0 -24 -17 -33q-11 -6 -47 -6h-164q-37 0 -47 6q-18 10 -18 33q0 24 28 39l20 8q17 9 17 38v395q-3 13 -17 20l-38 18q-19 9 -19 31q0 31 40 36l70 8q50 6 95 27q38 18 55 18q15 0 25.5 -11t10.5 -26q0 -18 -11 -27l-29 -25
l-19 -41zM170 837q8 16 42 16h54q29 0 29 -15q0 -9 -14 -20l-111 -85q-22 -17 -32 -17q-17 0 -17 15q0 8 4 15l7 13z" />
    <glyph glyph-name="Icircumflex" unicode="&#xce;" horiz-adv-x="363" 
d="M268 108q1 -13 17 -22l19 -8q28 -12 28 -39q0 -24 -17 -33q-11 -6 -47 -6h-164q-37 0 -47 6q-18 10 -18 33q0 24 28 39l20 8q17 9 17 38v395q-3 13 -17 20l-38 18q-19 9 -19 31q0 31 40 36l70 8q50 6 95 27q38 18 55 18q15 0 25.5 -11t10.5 -26q0 -18 -11 -27l-29 -25
l-19 -41zM181 768l-95 -49q-4 -3 -10 -3q-19 0 -19 18q0 8 9 19l65 83q27 34 51 34t50 -34l64 -83q9 -12 9 -19q0 -18 -18 -18q-5 0 -10 3l-17 9z" />
    <glyph glyph-name="Idieresis" unicode="&#xcf;" horiz-adv-x="363" 
d="M268 108q1 -13 17 -22l19 -8q28 -12 28 -39q0 -24 -17 -33q-11 -6 -47 -6h-164q-37 0 -47 6q-18 10 -18 33q0 24 28 39l20 8q17 9 17 38v395q-3 13 -17 20l-38 18q-19 9 -19 31q0 31 40 36l70 8q50 6 95 27q38 18 55 18q15 0 25.5 -11t10.5 -26q0 -18 -11 -27l-29 -25
l-19 -41zM263 838q25 0 43 -18t18 -43t-18 -43t-43 -18t-43 18t-18 43q0 26 18 43.5t43 17.5zM100 838q25 0 43 -18t18 -43t-17.5 -43t-43.5 -18q-25 0 -43 18t-18 43t18 43t43 18z" />
    <glyph glyph-name="Eth" unicode="&#xd0;" horiz-adv-x="662" 
d="M103 330h-35q-37 0 -37 33t37 33h35v106q-5 11 -10 20q-13 21 -28 26q-35 12 -35 39q0 35 72 40q24 2 53 8q39 9 79 22q87 29 131 29q130 0 205 -101q69 -91 69 -225q0 -167 -90 -263q-93 -97 -259 -97h-187q-37 0 -47 6q-18 10 -18 33q0 27 28 39l19 8q18 8 18 36v208z
M372 396q37 0 37 -33t-37 -33h-107v-240h12q88 0 137.5 75.5t49.5 209.5q0 77 -29 143q-37 85 -105 85q-35 0 -52 -21q-10 -10 -12 -47l-1 -17v-122h107z" />
    <glyph glyph-name="Ntilde" unicode="&#xd1;" horiz-adv-x="653" 
d="M207 461l2 -353q2 -16 16 -22l20 -8q28 -15 28 -39q0 -19 -18 -33q-10 -6 -47 -6h-101q-37 0 -47 6q-18 10 -18 33q0 27 29 39l19 8q17 7 17 38v380q-4 33 -33 42l-19 6q-25 8 -25 33q0 23 26 34q6 1 27 10q40 16 81 40q30 17 37 17q49 0 129 -109q58 -78 95 -154
q26 -53 47 -116v212q-2 12 -17 20l-37 18q-19 9 -19 31q0 27 40 36l35 8q16 4 58 26q36 19 56 19q14 0 24.5 -11t10.5 -26q0 -18 -11 -27l-29 -25l-19 -41v-375q0 -25 1 -42l2 -35q1 -10 2 -32l2 -25q1 -1 1 -4q0 -34 -38 -34h-100q-35 0 -41 45q-1 7 -3 23q-6 34 -25 89
q-38 106 -100 215q-28 48 -58 89zM367 822q15 -5 24 -5q11 0 32.5 8.5t24.5 8.5q23 0 23 -26q0 -16 -15.5 -36t-37.5 -31q-18 -9 -37 -9q-15 0 -41 10t-38 10q-6 0 -26 -8t-25 -8q-22 0 -22 25q0 11 8 25q28 48 81 48q13 0 25 -4z" />
    <glyph glyph-name="Ograve" unicode="&#xd2;" horiz-adv-x="610" 
d="M587 341q0 -142 -68 -238q-76 -109 -212 -109q-140 0 -216 109q-67 95 -67 241q0 165 88 256q83 86 193 86q133 0 212 -109q70 -98 70 -236zM358 746q4 -8 4 -15q0 -15 -17 -15q-10 0 -32 17l-111 85q-14 11 -14 20q0 15 29 15h54q35 0 42 -16l7 -15zM411 346
q0 117 -28.5 183t-79.5 66q-49 0 -77 -68.5t-28 -187.5q0 -253 106 -253q51 0 79 68t28 192z" />
    <glyph glyph-name="Oacute" unicode="&#xd3;" horiz-adv-x="610" 
d="M587 341q0 -142 -68 -238q-76 -109 -212 -109q-140 0 -216 109q-67 95 -67 241q0 165 88 256q83 86 193 86q133 0 212 -109q70 -98 70 -236zM300 837q8 16 43 16h53q29 0 29 -15q0 -10 -13 -20l-111 -85q-22 -17 -32 -17q-7 0 -11 4q-7 4 -7 11q0 4 5 15l6 13zM411 346
q0 117 -28.5 183t-79.5 66q-49 0 -77 -68.5t-28 -187.5q0 -253 106 -253q51 0 79 68t28 192z" />
    <glyph glyph-name="Ocircumflex" unicode="&#xd4;" horiz-adv-x="610" 
d="M587 341q0 -142 -68 -238q-76 -109 -212 -109q-140 0 -216 109q-67 95 -67 241q0 165 88 256q83 86 193 86q133 0 212 -109q70 -98 70 -236zM305 768l-95 -49q-4 -3 -10 -3q-19 0 -19 18q0 7 9 19l64 83q26 34 52 34q24 0 50 -34l64 -83q9 -12 9 -19q0 -18 -18 -18
q-5 0 -10 3l-17 9zM411 346q0 117 -28.5 183t-79.5 66q-49 0 -77 -68.5t-28 -187.5q0 -253 106 -253q51 0 79 68t28 192z" />
    <glyph glyph-name="Otilde" unicode="&#xd5;" horiz-adv-x="610" 
d="M587 341q0 -142 -68 -238q-76 -109 -212 -109q-140 0 -216 109q-67 95 -67 241q0 165 88 256q83 86 193 86q133 0 212 -109q70 -98 70 -236zM322 822q15 -5 24 -5q11 0 32.5 8.5t24.5 8.5q23 0 23 -26q0 -16 -15.5 -36t-37.5 -31q-18 -9 -37 -9q-16 0 -54 14q-16 6 -24 6
q-10 0 -29 -9q-15 -7 -23 -7q-22 0 -22 25q0 11 8 25q28 48 81 48q13 0 25 -4zM411 346q0 117 -28.5 183t-79.5 66q-49 0 -77 -68.5t-28 -187.5q0 -253 106 -253q51 0 79 68t28 192z" />
    <glyph glyph-name="Odieresis" unicode="&#xd6;" horiz-adv-x="610" 
d="M587 341q0 -142 -68 -238q-76 -109 -212 -109q-140 0 -216 109q-67 95 -67 241q0 165 88 256q83 86 193 86q133 0 212 -109q70 -98 70 -236zM407 851q28 0 48 -19.5t20 -47.5t-19.5 -48t-48.5 -20q-28 0 -48 20t-20 48t20 47.5t48 19.5zM203 851q28 0 48 -19.5t20 -47.5
t-19.5 -48t-48.5 -20q-28 0 -48 19.5t-20 47.5t20 48t48 20zM411 346q0 117 -28.5 183t-79.5 66q-49 0 -77 -68.5t-28 -187.5q0 -253 106 -253q51 0 79 68t28 192z" />
    <glyph glyph-name="multiply" unicode="&#xd7;" 
d="M359 359q12 12 27 12q13 0 22.5 -9.5t9.5 -22.5q0 -15 -12 -27l-92 -92l92 -92q12 -12 12 -27q0 -13 -9.5 -22.5t-22.5 -9.5q-15 0 -27 12l-92 92l-92 -92q-12 -12 -27 -12q-13 0 -22.5 9.5t-9.5 22.5q0 15 12 27l92 92l-92 92q-12 12 -12 27q0 13 9.5 22.5t22.5 9.5
q15 0 27 -12l92 -92z" />
    <glyph glyph-name="Oslash" unicode="&#xd8;" horiz-adv-x="612" 
d="M488 609q31 -31 50 -61q50 -78 50 -211q0 -144 -69 -240q-78 -107 -217 -107q-48 0 -108 25l-12 -23q-18 -34 -46 -34q-19 0 -32.5 12.5t-13.5 29.5q0 16 13 43l14 29q-93 93 -93 271q0 141 70 237q79 106 215 106q49 0 101 -26l11 21q22 42 49 42q19 0 33 -12.5
t14 -29.5q0 -12 -12 -37zM362 565q-22 27 -56 27q-50 0 -78 -67t-28 -186q0 -45 6 -89zM245 119q29 -36 62 -36q107 0 107 268q0 48 -8 91z" />
    <glyph glyph-name="Ugrave" unicode="&#xd9;" horiz-adv-x="606" 
d="M526 170q0 -176 -215 -176q-221 0 -221 191v334q-1 13 -16 20l-38 18q-19 9 -19 31q0 31 40 36l69 8q50 6 95 27q38 18 55 18q15 0 25.5 -11t10.5 -26q0 -18 -11 -27l-29 -25l-19 -41v-359q0 -91 86 -91q88 0 88 91v331q-1 13 -18 20l-40 18q-21 9 -21 31q0 27 43 36
l38 8q27 6 62 24q40 21 60 21q16 0 27 -11t11 -26q0 -17 -12 -27l-31 -25l-21 -41l1 -45v-332zM362 759l7 -13q4 -7 4 -15q0 -15 -17 -15q-10 0 -32 17l-111 85q-14 11 -14 20q0 15 29 15h54q33 0 42 -16l8 -15z" />
    <glyph glyph-name="Uacute" unicode="&#xda;" horiz-adv-x="606" 
d="M526 170q0 -176 -215 -176q-221 0 -221 191v334q-1 13 -16 20l-38 18q-19 9 -19 31q0 31 40 36l69 8q50 6 95 27q38 18 55 18q15 0 25.5 -11t10.5 -26q0 -18 -11 -27l-29 -25l-19 -41v-359q0 -91 86 -91q88 0 88 91v331q-1 13 -18 20l-40 18q-21 9 -21 31q0 27 43 36
l38 8q27 6 62 24q40 21 60 21q16 0 27 -11t11 -26q0 -17 -12 -27l-31 -25l-21 -41l1 -45v-332zM321 837q8 16 43 16h53q30 0 30 -15q0 -9 -14 -20l-111 -85q-22 -17 -32 -17q-17 0 -17 15q0 6 4 15l6 13z" />
    <glyph glyph-name="Ucircumflex" unicode="&#xdb;" horiz-adv-x="606" 
d="M526 170q0 -176 -215 -176q-221 0 -221 191v334q-1 13 -16 20l-38 18q-19 9 -19 31q0 31 40 36l69 8q50 6 95 27q38 18 55 18q15 0 25.5 -11t10.5 -26q0 -18 -11 -27l-29 -25l-19 -41v-359q0 -91 86 -91q88 0 88 91v331q-1 13 -18 20l-40 18q-21 9 -21 31q0 27 43 36
l38 8q27 6 62 24q40 21 60 21q16 0 27 -11t11 -26q0 -17 -12 -27l-31 -25l-21 -41l1 -45v-332zM313 768l-96 -49q-4 -3 -10 -3q-18 0 -18 18q0 7 9 19l64 83q26 34 51 34t51 -34l64 -83q9 -12 9 -19q0 -18 -19 -18q-5 0 -10 3l-16 9z" />
    <glyph glyph-name="Udieresis" unicode="&#xdc;" horiz-adv-x="606" 
d="M526 170q0 -176 -215 -176q-221 0 -221 191v334q-1 13 -16 20l-38 18q-19 9 -19 31q0 31 40 36l69 8q50 6 95 27q38 18 55 18q15 0 25.5 -11t10.5 -26q0 -18 -11 -27l-29 -25l-19 -41v-359q0 -91 86 -91q88 0 88 91v331q-1 13 -18 20l-40 18q-21 9 -21 31q0 27 43 36
l38 8q27 6 62 24q40 21 60 21q16 0 27 -11t11 -26q0 -17 -12 -27l-31 -25l-21 -41l1 -45v-332zM411 851q28 0 48 -19.5t20 -47.5t-19.5 -48t-48.5 -20q-28 0 -47.5 20t-19.5 48t19.5 47.5t47.5 19.5zM208 851q28 0 48 -19.5t20 -47.5t-20 -48t-48 -20t-48 19.5t-20 47.5
q0 29 20 48.5t48 19.5z" />
    <glyph glyph-name="Yacute" unicode="&#xdd;" horiz-adv-x="537" 
d="M316 365q33 40 46 70q16 37 16 79q0 51 -53 74q-9 4 -22 10q-18 10 -18 31q0 38 51 38h125q69 0 69 -98q0 -80 -43.5 -160t-121.5 -144l2 -157q2 -16 16 -22l20 -8q28 -15 28 -39q0 -23 -18 -33q-10 -6 -47 -6h-164q-36 0 -46 6q-18 10 -18 33q0 27 28 39l19 8
q17 7 17 38v126l-5 6q-58 69 -89 151q-8 20 -28 58q-17 24 -42 28l-18 3q-29 5 -29 39q0 27 36 46q43 23 104 76q23 20 39 20q33 0 41 -66q13 -112 53 -179q18 -30 52 -67zM321 837q8 16 43 16h53q30 0 30 -15q0 -9 -14 -20l-111 -85q-22 -17 -32 -17q-17 0 -17 15q0 6 4 15
l6 13z" />
    <glyph glyph-name="Thorn" unicode="&#xde;" horiz-adv-x="540" 
d="M264 183l1 -46l1 -13l1 -16q1 -16 16 -22l20 -8q28 -15 28 -39q0 -23 -18 -33q-10 -6 -47 -6h-163q-37 0 -47 6q-18 10 -18 33q0 27 28 39l19 8q18 8 18 38v141q-57 2 -57 44q0 41 57 41v156q0 21 -8 29q-7 5 -30 13q-35 12 -35 39q0 38 72 40q34 1 98 19q4 1 21.5 -33
t29.5 -30q54 21 86 21q85 0 143.5 -59t58.5 -144q0 -102 -78 -163q-71 -56 -176 -56q-14 0 -21 1zM264 268q99 5 99 139q0 50 -17.5 83.5t-44.5 33.5q-37 0 -37 -58v-198z" />
    <glyph glyph-name="germandbls" unicode="&#xdf;" horiz-adv-x="507" 
d="M206 34q-9 -53 -37 -101q-35 -63 -79 -63q-15 0 -27 20l-23 38q-1 2 -23 30q-17 20 -17 29q0 24 30.5 26t40.5 17q7 12 7 45v297h-17q-46 0 -46 31q0 13 25.5 33t28.5 30q5 15 6 43l1 29q2 64 46 99.5t121 35.5q71 0 116 -36.5t45 -93.5q0 -50 -47 -97q48 -14 72 -40
q51 -55 51 -174q0 -112 -46.5 -178.5t-124.5 -66.5q-58 0 -103 47zM209 149q26 20 47 20q8 0 21 -5q23 -14 23 -34q0 -8 -3 -9q-24 -12 -24 -20q0 -23 22 -23q49 0 49 122q0 98 -33 155q-13 22 -23 28.5t-35.5 10.5t-25.5 24q0 16 22 30q47 30 47 79q0 29 -14 48t-36 19
q-37 0 -37 -47v-398z" />
    <glyph glyph-name="agrave" unicode="&#xe0;" horiz-adv-x="463" 
d="M268 43q-62 -58 -125 -58q-57 0 -93.5 33t-36.5 87q0 88 109 134q-80 12 -80 86q0 58 50.5 94t131.5 36q110 0 158 -59q22 -27 22 -90v-173q0 -30 24 -48t24 -34t-43 -35q-29 -12 -59 -24q-18 -9 -30 -9q-22 0 -35 19q-6 9 -17 41zM288 522q4 -11 4 -15q0 -16 -18 -16
q-7 0 -31 18l-112 85q-13 10 -13 20q0 15 29 15h53q36 0 43 -16l7 -15zM268 228q-11 -7 -34 -21l-24 -13q-47 -25 -47 -62q0 -49 43 -49q62 0 62 94v51zM191 266q25 11 41 20q38 22 38 57q0 47 -54 47q-23 0 -39 -13.5t-16 -32.5q0 -26 20 -31l16 -6q5 -2 5 -9
q0 -12 -11 -32z" />
    <glyph glyph-name="aacute" unicode="&#xe1;" horiz-adv-x="463" 
d="M268 43q-62 -58 -125 -58q-57 0 -93.5 33t-36.5 87q0 88 109 134q-80 12 -80 86q0 58 50.5 94t131.5 36q110 0 158 -59q22 -27 22 -90v-173q0 -30 24 -48t24 -34t-43 -35q-29 -12 -59 -24q-18 -9 -30 -9q-22 0 -35 19q-6 9 -17 41zM216 613q8 16 43 16h53q29 0 29 -15
q0 -10 -13 -20l-111 -85q-24 -18 -32 -18q-5 0 -11.5 5.5t-6.5 10.5q0 4 4 15l7 13zM268 228q-11 -7 -34 -21l-24 -13q-47 -25 -47 -62q0 -49 43 -49q62 0 62 94v51zM191 266q25 11 41 20q38 22 38 57q0 47 -54 47q-23 0 -39 -13.5t-16 -32.5q0 -26 20 -31l16 -6q5 -2 5 -9
q0 -12 -11 -32z" />
    <glyph glyph-name="acircumflex" unicode="&#xe2;" horiz-adv-x="463" 
d="M268 43q-62 -58 -125 -58q-57 0 -93.5 33t-36.5 87q0 88 109 134q-80 12 -80 86q0 58 50.5 94t131.5 36q110 0 158 -59q22 -27 22 -90v-173q0 -30 24 -48t24 -34t-43 -35q-29 -12 -59 -24q-18 -9 -30 -9q-22 0 -35 19q-6 9 -17 41zM231 544l-95 -49q-4 -3 -10 -3
q-19 0 -19 18q0 8 9 19l65 83q27 34 51 34t50 -34l64 -83q9 -12 9 -19q0 -18 -18 -18q-5 0 -10 3l-17 9zM268 228q-11 -7 -34 -21l-24 -13q-47 -25 -47 -62q0 -49 43 -49q62 0 62 94v51zM191 266q25 11 41 20q38 22 38 57q0 47 -54 47q-23 0 -39 -13.5t-16 -32.5
q0 -26 20 -31l16 -6q5 -2 5 -9q0 -12 -11 -32z" />
    <glyph glyph-name="atilde" unicode="&#xe3;" horiz-adv-x="463" 
d="M268 43q-62 -58 -125 -58q-57 0 -93.5 33t-36.5 87q0 88 109 134q-80 12 -80 86q0 58 50.5 94t131.5 36q110 0 158 -59q22 -27 22 -90v-173q0 -30 24 -48t24 -34t-43 -35q-29 -12 -59 -24q-18 -9 -30 -9q-22 0 -35 19q-6 9 -17 41zM248 618q14 -5 25 -5q13 0 32 10
q17 7 24 7q24 0 24 -26q0 -16 -16 -35.5t-38 -30.5q-18 -9 -36 -9q-20 0 -55 13q-19 7 -24 7q-6 0 -27 -8.5t-25 -8.5q-22 0 -22 25q0 12 9 26q32 48 80 48q12 0 26 -5zM268 228q-11 -7 -34 -21l-24 -13q-47 -25 -47 -62q0 -49 43 -49q62 0 62 94v51zM191 266q25 11 41 20
q38 22 38 57q0 47 -54 47q-23 0 -39 -13.5t-16 -32.5q0 -26 20 -31l16 -6q5 -2 5 -9q0 -12 -11 -32z" />
    <glyph glyph-name="adieresis" unicode="&#xe4;" horiz-adv-x="463" 
d="M268 43q-62 -58 -125 -58q-57 0 -93.5 33t-36.5 87q0 88 109 134q-80 12 -80 86q0 58 50.5 94t131.5 36q110 0 158 -59q22 -27 22 -90v-173q0 -30 24 -48t24 -34t-43 -35q-29 -12 -59 -24q-18 -9 -30 -9q-22 0 -35 19q-6 9 -17 41zM333 627q29 0 48.5 -19.5t19.5 -48.5
q0 -28 -20 -47.5t-48 -19.5t-48 19.5t-20 47.5t20 48t48 20zM129 627q29 0 48.5 -19.5t19.5 -48.5q0 -28 -20 -47.5t-48 -19.5t-47.5 19.5t-19.5 47.5t19.5 48t47.5 20zM191 266q25 11 41 20q38 22 38 57q0 47 -54 47q-23 0 -39 -13.5t-16 -32.5q0 -26 20 -31l16 -6
q5 -2 5 -9q0 -12 -11 -32zM268 228q-11 -7 -34 -21l-24 -13q-47 -25 -47 -62q0 -49 43 -49q62 0 62 94v51z" />
    <glyph glyph-name="aring" unicode="&#xe5;" horiz-adv-x="463" 
d="M268 43q-62 -58 -125 -58q-57 0 -93.5 33t-36.5 87q0 88 109 134q-80 12 -80 86q0 58 50.5 94t131.5 36q110 0 158 -59q22 -27 22 -90v-173q0 -30 24 -48t24 -34t-43 -35q-29 -12 -59 -24q-18 -9 -30 -9q-22 0 -35 19q-6 9 -17 41zM228 664q36 0 61.5 -25.5t25.5 -61.5
t-25.5 -62t-61.5 -26t-61.5 26t-25.5 62t25.5 61.5t61.5 25.5zM268 228q-11 -7 -34 -21l-24 -13q-47 -25 -47 -62q0 -49 43 -49q62 0 62 94v51zM191 266q25 11 41 20q38 22 38 57q0 47 -54 47q-23 0 -39 -13.5t-16 -32.5q0 -26 20 -31l16 -6q5 -2 5 -9q0 -12 -11 -32z
M228 525q27 0 27 53q0 52 -27 52t-27 -52q0 -53 27 -53z" />
    <glyph glyph-name="ae" unicode="&#xe6;" horiz-adv-x="667" 
d="M540 250q7 0 10 1h7q41 0 69 -29.5t28 -73.5q0 -77 -61 -121q-55 -40 -135 -40q-113 0 -172 86q-68 -86 -144 -86q-55 0 -92 35t-37 87q0 68 55 106q20 14 53 29q-77 23 -77 93q0 62 56 96q47 29 113 29q73 0 126 -43q58 43 130 43q54 0 106 -31q59 -36 59 -87
q0 -25 -45 -58zM192 274q29 10 45 20q33 21 33 54q0 20 -16 34.5t-38 14.5q-23 0 -38 -13t-15 -33q0 -25 22 -34q17 -7 17 -17t-10 -26zM399 250l59 39q40 26 40 69q0 37 -33 37q-19 0 -35 -23q-25 -37 -31 -122zM268 239q-8 -7 -32 -20q-8 -5 -29 -18q-45 -26 -45 -63
q0 -20 13 -33.5t32 -13.5q61 0 61 100v48zM403 164q11 -86 68 -86q23 0 37.5 13.5t14.5 34.5q0 23 -16 32l-20 8q-10 4 -10 12q0 15 16 43z" />
    <glyph glyph-name="ccedilla" unicode="&#xe7;" horiz-adv-x="409" 
d="M239 -12l-10 -33q11 4 20 4q53 0 53 -64q0 -35 -26 -59t-63 -24q-30 0 -51 15.5t-21 37.5q0 33 36 33q16 0 16 -7v-7q-1 -1 -1 -6q0 -22 19 -22q25 0 25 29q0 30 -31 30h-4q-1 -1 -3 -1q-5 -1 -18 -1q-18 0 -18 16q0 9 21 59q-77 12 -121.5 72t-44.5 151q0 97 48 168
q54 82 147 82q21 0 61 -5q8 -1 11 -1q7 0 15 2l16 4q12 3 17 3q34 0 34 -36q0 -7 -3 -27q-1 -7 -1 -44v-23q0 -6 1 -10v-8q0 -45 -39 -45q-13 0 -22 7q-14 11 -33 66q-15 43 -41 43q-31 0 -50.5 -45.5t-19.5 -116.5q0 -145 72 -145q40 0 40 42q0 17 -19.5 27t-19.5 19
q0 26 23 46.5t52 20.5q38 0 62 -28.5t24 -73.5q0 -60 -41 -98.5t-112 -46.5z" />
    <glyph glyph-name="egrave" unicode="&#xe8;" horiz-adv-x="436" 
d="M315 252h3q48 0 76 -30.5t28 -81.5q0 -77 -62 -120q-55 -37 -135 -37q-97 0 -152.5 60.5t-55.5 166.5q0 103 57 175q62 77 163 77q52 0 96 -23.5t64 -61.5q9 -17 9 -33q0 -26 -43 -57zM274 522q4 -8 4 -15q0 -16 -17 -16q-8 0 -32 18l-111 85q-14 11 -14 20q0 15 30 15
h53q36 0 43 -16l7 -15zM171 164q9 -89 70 -89q20 0 35 14.5t15 33.5q0 28 -33 40q-13 5 -13 17q0 8 3 14q1 1 9 16q2 3 5 9zM168 248l68 47q33 23 33 60q0 38 -33 38q-29 0 -47.5 -39.5t-20.5 -105.5z" />
    <glyph glyph-name="eacute" unicode="&#xe9;" horiz-adv-x="436" 
d="M315 252h3q48 0 76 -30.5t28 -81.5q0 -77 -62 -120q-55 -37 -135 -37q-97 0 -152.5 60.5t-55.5 166.5q0 103 57 175q62 77 163 77q52 0 96 -23.5t64 -61.5q9 -17 9 -33q0 -26 -43 -57zM203 613q8 16 42 16h54q29 0 29 -15q0 -9 -14 -20l-111 -85q-24 -18 -32 -18
q-17 0 -17 16q0 8 4 15l7 13zM171 164q9 -89 70 -89q20 0 35 14.5t15 33.5q0 28 -33 40q-13 5 -13 17q0 8 3 14q1 1 9 16q2 3 5 9zM168 248l68 47q33 23 33 60q0 38 -33 38q-29 0 -47.5 -39.5t-20.5 -105.5z" />
    <glyph glyph-name="ecircumflex" unicode="&#xea;" horiz-adv-x="436" 
d="M315 252h3q48 0 76 -30.5t28 -81.5q0 -77 -62 -120q-55 -37 -135 -37q-97 0 -152.5 60.5t-55.5 166.5q0 103 57 175q62 77 163 77q52 0 96 -23.5t64 -61.5q9 -17 9 -33q0 -26 -43 -57zM218 544l-96 -49q-4 -3 -10 -3q-18 0 -18 18q0 7 9 19l64 83q26 34 51 34
q23 0 50 -34l65 -83q9 -11 9 -19q0 -18 -19 -18q-5 0 -10 3l-17 9zM171 164q9 -89 70 -89q20 0 35 14.5t15 33.5q0 28 -33 40q-13 5 -13 17q0 8 3 14q1 1 9 16q2 3 5 9zM168 248l68 47q33 23 33 60q0 38 -33 38q-29 0 -47.5 -39.5t-20.5 -105.5z" />
    <glyph glyph-name="edieresis" unicode="&#xeb;" horiz-adv-x="436" 
d="M315 252h3q48 0 76 -30.5t28 -81.5q0 -77 -62 -120q-55 -37 -135 -37q-97 0 -152.5 60.5t-55.5 166.5q0 103 57 175q62 77 163 77q52 0 96 -23.5t64 -61.5q9 -17 9 -33q0 -26 -43 -57zM320 627q28 0 47.5 -20t19.5 -48t-19.5 -47.5t-47.5 -19.5t-48 19.5t-20 47.5
q0 29 20 48.5t48 19.5zM116 627q28 0 48 -20t20 -48t-20 -47.5t-48 -19.5t-48 19.5t-20 47.5q0 29 20 48.5t48 19.5zM168 248l68 47q33 23 33 60q0 38 -33 38q-29 0 -47.5 -39.5t-20.5 -105.5zM171 164q9 -89 70 -89q20 0 35 14.5t15 33.5q0 28 -33 40q-13 5 -13 17
q0 8 3 14q1 1 9 16q2 3 5 9z" />
    <glyph glyph-name="igrave" unicode="&#xec;" horiz-adv-x="276" 
d="M213 98q0 -23 15 -29l17 -7q25 -10 25 -31q0 -18 -16 -26q-11 -5 -41 -5h-136q-57 0 -57 31q0 21 25 31l17 7q15 6 15 29v211q0 21 -17 30l-20 10q-17 8 -17 28q0 28 53 39q39 8 70 28q23 15 34 15q26 0 32 -21q0 -1 1 -10v-330zM195 522q4 -11 4 -15q0 -16 -18 -16
q-7 0 -31 18l-112 85q-13 10 -13 20q0 15 29 15h53q36 0 43 -16l7 -15z" />
    <glyph glyph-name="iacute" unicode="&#xed;" horiz-adv-x="276" 
d="M213 98q0 -23 15 -29l17 -7q25 -10 25 -31q0 -18 -16 -26q-11 -5 -41 -5h-136q-57 0 -57 31q0 21 25 31l17 7q15 6 15 29v211q0 21 -17 30l-20 10q-17 8 -17 28q0 28 53 39q39 8 70 28q23 15 34 15q26 0 32 -21q0 -1 1 -10v-330zM123 613q8 16 43 16h53q29 0 29 -15
q0 -10 -13 -20l-111 -85q-24 -18 -32 -18q-5 0 -11.5 5.5t-6.5 10.5q0 4 4 15l7 13z" />
    <glyph glyph-name="icircumflex" unicode="&#xee;" horiz-adv-x="276" 
d="M213 98q0 -23 15 -29l17 -7q25 -10 25 -31q0 -18 -16 -26q-11 -5 -41 -5h-136q-57 0 -57 31q0 21 25 31l17 7q15 6 15 29v211q0 21 -17 30l-20 10q-17 8 -17 28q0 28 53 39q39 8 70 28q23 15 34 15q26 0 32 -21q1 -2 1 -31v-309zM138 544l-95 -49q-4 -3 -10 -3
q-19 0 -19 18q0 8 9 19l65 83q27 34 51 34t50 -34l64 -83q9 -12 9 -19q0 -18 -18 -18q-5 0 -10 3l-17 9z" />
    <glyph glyph-name="idieresis" unicode="&#xef;" horiz-adv-x="276" 
d="M213 98q0 -23 15 -29l17 -7q25 -10 25 -31q0 -18 -16 -26q-11 -5 -41 -5h-136q-57 0 -57 31q0 21 25 31l17 7q15 6 15 29v211q0 21 -17 30l-20 10q-17 8 -17 28q0 28 53 39q39 8 70 28q23 15 34 15q26 0 32 -21q0 -1 1 -10v-330zM220 614q25 0 43 -18t18 -43t-18 -43
t-43 -18t-43 18t-18 43t18 43t43 18zM57 614q25 0 43 -18t18 -43t-18 -43t-43 -18t-42.5 18t-17.5 43t17.5 43t42.5 18z" />
    <glyph glyph-name="eth" unicode="&#xf0;" horiz-adv-x="485" 
d="M486 31q0 -31 -57 -31h-98q-41 0 -38 43q-51 -56 -120 -56q-78 0 -121 76q-35 62 -35 146q0 98 44 169q52 84 144 84q51 0 88 -40v6q0 35 -21.5 90.5t-45.5 75.5q-95 -53 -106 -53q-7 0 -21.5 9.5t-18.5 15.5q8 8 102 60q-1 1 -77 33q-57 24 -57 37q0 20 15 20
q43 0 109 -13q71 -14 104 -32q105 55 123 55q24 0 24 -23q0 -16 -37 -36q-17 -8 -51 -26q51 -30 73 -69.5t22 -100.5v-186v-109q-1 -63 -1 -78q0 -22 28.5 -36t28.5 -31zM293 192v107q-22 -15 -41 -15q-38 0 -39 22q2 5 11.5 17.5t9.5 21.5q0 25 -24 25q-50 0 -50 -113
q0 -154 76 -154q57 0 57 89z" />
    <glyph glyph-name="ntilde" unicode="&#xf1;" horiz-adv-x="513" 
d="M213 400q51 62 120 62q35 0 65 -16q34 -18 45 -48q6 -17 6 -57v-243q0 -22 16 -29l17 -7q24 -10 24 -31q0 -31 -57 -31h-135q-41 0 -41 31q0 20 17 31l13 6q11 8 11 30v186q0 61 -50 61q-51 0 -51 -66v-181q0 -25 11 -30l12 -6q18 -9 18 -31q0 -17 -11 -26q-8 -5 -30 -5
h-136q-57 0 -57 31q0 21 25 31l17 7q15 6 15 29v211q0 21 -17 30l-20 10q-17 8 -17 28q0 28 53 39q39 8 70 28q23 15 34 15q26 0 32 -21q0 -1 1 -10v-28zM273 618q14 -5 25 -5q12 0 29.5 8.5t27.5 8.5q23 0 23 -26q0 -16 -16 -35.5t-38 -30.5q-18 -9 -36 -9q-16 0 -42.5 10
t-36.5 10q-6 0 -27 -8.5t-25 -8.5q-22 0 -22 25q0 12 9 26q32 48 80 48q12 0 26 -5z" />
    <glyph glyph-name="ograve" unicode="&#xf2;" horiz-adv-x="445" 
d="M428 222q0 -98 -53 -164q-56 -71 -152 -71q-95 0 -152 71q-54 65 -54 162q0 105 58.5 173.5t147.5 68.5q96 0 153 -74q52 -67 52 -166zM279 522q4 -8 4 -15q0 -16 -18 -16q-7 0 -31 18l-111 85q-14 11 -14 20q0 15 29 15h54q35 0 42 -16l7 -15zM284 226v-1q0 151 -62 151
q-59 0 -59 -151q0 -152 62 -152q59 0 59 153z" />
    <glyph glyph-name="oacute" unicode="&#xf3;" horiz-adv-x="445" 
d="M428 222q0 -98 -53 -164q-56 -71 -152 -71q-95 0 -152 71q-54 65 -54 162q0 105 58.5 173.5t147.5 68.5q96 0 153 -74q52 -67 52 -166zM220 613q8 16 43 16h54q29 0 29 -15q0 -9 -14 -20l-111 -85q-24 -18 -32 -18q-17 0 -17 16q0 8 4 15l7 13zM284 226v-1q0 151 -62 151
q-59 0 -59 -151q0 -152 62 -152q59 0 59 153z" />
    <glyph glyph-name="ocircumflex" unicode="&#xf4;" horiz-adv-x="445" 
d="M428 222q0 -98 -53 -164q-56 -71 -152 -71q-95 0 -152 71q-54 65 -54 162q0 105 58.5 173.5t147.5 68.5q96 0 153 -74q52 -67 52 -166zM222 544l-95 -49q-4 -3 -10 -3q-19 0 -19 18q0 8 9 19l65 83q27 34 51 34t50 -34l64 -83q9 -12 9 -19q0 -18 -18 -18q-5 0 -10 3
l-17 9zM284 226v-1q0 151 -62 151q-59 0 -59 -151q0 -152 62 -152q59 0 59 153z" />
    <glyph glyph-name="otilde" unicode="&#xf5;" horiz-adv-x="445" 
d="M428 222q0 -98 -53 -164q-56 -71 -152 -71q-95 0 -152 71q-54 65 -54 162q0 105 58.5 173.5t147.5 68.5q96 0 153 -74q52 -67 52 -166zM239 618q14 -5 25 -5q13 0 32 10q17 7 24 7q24 0 24 -26q0 -27 -31 -51t-59 -24q-19 0 -54 13q-19 7 -25 7t-27 -8.5t-25 -8.5
q-22 0 -22 25q0 12 9 26q32 48 80 48q12 0 26 -5zM284 226v-1q0 151 -62 151q-59 0 -59 -151q0 -152 62 -152q59 0 59 153z" />
    <glyph glyph-name="odieresis" unicode="&#xf6;" horiz-adv-x="445" 
d="M428 222q0 -98 -53 -164q-56 -71 -152 -71q-95 0 -152 71q-54 65 -54 162q0 105 58.5 173.5t147.5 68.5q96 0 153 -74q52 -67 52 -166zM324 627q29 0 48.5 -19.5t19.5 -48.5q0 -28 -20 -47.5t-48 -19.5t-48 19.5t-20 47.5t20 48t48 20zM120 627q29 0 48.5 -19.5
t19.5 -48.5q0 -28 -20 -47.5t-48 -19.5t-47.5 19.5t-19.5 47.5t19.5 48t47.5 20zM284 226v-1q0 151 -62 151q-59 0 -59 -151q0 -152 62 -152q59 0 59 153z" />
    <glyph glyph-name="divide" unicode="&#xf7;" horiz-adv-x="600" 
d="M552 303v-100h-504v100h504zM215 461q0 34 26 59.5t59 25.5q34 0 59.5 -25.5t25.5 -59.5q0 -33 -26 -59t-59 -26q-34 0 -59.5 25t-25.5 60zM215 45q0 35 25.5 60t59.5 25t59.5 -25t25.5 -60q0 -34 -25.5 -59t-59.5 -25q-33 0 -59 25.5t-26 58.5z" />
    <glyph glyph-name="oslash" unicode="&#xf8;" horiz-adv-x="444" 
d="M87 35q-70 76 -70 188q0 97 53 162q57 71 151 71q33 0 67 -14q5 8 6 12q17 36 37 36q15 0 25.5 -10t10.5 -24q0 -18 -16 -46q76 -76 76 -188q0 -96 -52 -165q-57 -75 -150 -75q-36 0 -78 16q-19 -43 -45 -43q-33 0 -33 34q0 5 18 46zM190 86q15 -17 32 -17q60 0 60 144
q0 16 -3 52zM247 362q-14 11 -27 11q-61 0 -61 -153q0 -8 3 -31z" />
    <glyph glyph-name="ugrave" unicode="&#xf9;" horiz-adv-x="487" 
d="M288 40q-55 -53 -117 -53q-49 0 -80 26t-31 69v3l1 17v207q0 22 -17 30l-21 10q-16 8 -16 28q0 12 5 18.5t53 23.5q53 18 64 25q23 15 35 15q28 0 31 -21q1 -2 1 -31l1 -242q0 -67 43 -67q48 0 48 67v144q0 22 -17 30l-21 10q-16 8 -16 28q0 28 54 39q37 7 69 28
q23 15 34 15q28 0 31 -21q2 -8 2 -31v-309q0 -23 15 -29l17 -7q25 -10 25 -31q0 -17 -16 -26q-12 -5 -41 -5h-91q-45 0 -45 40zM293 535l7 -13q4 -7 4 -15q0 -16 -17 -16q-8 0 -32 18l-111 85q-14 11 -14 20q0 15 29 15h54q36 0 43 -16l7 -15z" />
    <glyph glyph-name="uacute" unicode="&#xfa;" horiz-adv-x="487" 
d="M288 40q-55 -53 -117 -53q-49 0 -80 26t-31 69v3l1 17v207q0 22 -17 30l-21 10q-16 8 -16 28q0 12 5 18.5t53 23.5q53 18 64 25q23 15 35 15q28 0 31 -21q1 -2 1 -31l1 -242q0 -67 43 -67q48 0 48 67v144q0 22 -17 30l-21 10q-16 8 -16 28q0 28 54 39q37 7 69 28
q23 15 34 15q28 0 31 -21q2 -8 2 -31v-309q0 -23 15 -29l17 -7q25 -10 25 -31q0 -17 -16 -26q-12 -5 -41 -5h-91q-45 0 -45 40zM235 613q8 16 43 16h53q29 0 29 -15q0 -10 -13 -20l-111 -85q-24 -18 -32 -18q-18 0 -18 16q0 4 5 15l6 13z" />
    <glyph glyph-name="ucircumflex" unicode="&#xfb;" horiz-adv-x="487" 
d="M288 40q-55 -53 -117 -53q-49 0 -80 26t-31 69v3l1 17v207q0 22 -17 30l-21 10q-16 8 -16 28q0 12 5 18.5t53 23.5q53 18 64 25q23 15 35 15q28 0 31 -21q1 -2 1 -31l1 -242q0 -67 43 -67q48 0 48 67v144q0 22 -17 30l-21 10q-16 8 -16 28q0 28 54 39q37 7 69 28
q23 15 34 15q28 0 31 -21q2 -8 2 -31v-309q0 -23 15 -29l17 -7q25 -10 25 -31q0 -17 -16 -26q-12 -5 -41 -5h-91q-45 0 -45 40zM244 544l-96 -49q-4 -3 -10 -3q-19 0 -19 18q0 6 10 19l64 83q26 34 51 34q23 0 50 -34l65 -83q9 -11 9 -19q0 -18 -19 -18q-5 0 -10 3l-17 9z
" />
    <glyph glyph-name="udieresis" unicode="&#xfc;" horiz-adv-x="487" 
d="M288 40q-55 -53 -117 -53q-49 0 -80 26t-31 69v3l1 17v207q0 22 -17 30l-21 10q-16 8 -16 28q0 12 5 18.5t53 23.5q53 18 64 25q23 15 35 15q28 0 31 -21q1 -2 1 -31l1 -242q0 -67 43 -67q48 0 48 67v144q0 22 -17 30l-21 10q-16 8 -16 28q0 28 54 39q37 7 69 28
q23 15 34 15q28 0 31 -21q2 -8 2 -31v-309q0 -23 15 -29l17 -7q25 -10 25 -31q0 -17 -16 -26q-12 -5 -41 -5h-91q-45 0 -45 40zM346 627q28 0 47.5 -20t19.5 -48t-19.5 -47.5t-47.5 -19.5t-48 19.5t-20 47.5q0 29 20 48.5t48 19.5zM142 627q28 0 48 -20t20 -48t-20 -47.5
t-48 -19.5t-48 19.5t-20 47.5q0 29 20 48.5t48 19.5z" />
    <glyph glyph-name="yacute" unicode="&#xfd;" horiz-adv-x="442" 
d="M173 371q33 91 127 91q59 0 94 -37.5t35 -100.5q0 -122 -101 -294q-124 -211 -275 -211q-55 0 -92 30t-37 75q0 36 23.5 60.5t56.5 24.5q19 0 37 -10q22 -13 22 -31q0 -5 -4 -9l-10 -8q-7 -7 -7 -15q0 -22 29 -22q41 0 83 35q35 29 35 54q0 12 -15 44l-117 249
q-1 1 -6 11q-11 21 -23 27l-14 7q-19 9 -19 26q0 11 40 39q50 34 53 37q16 16 31 16q10 0 15 -5t16 -30zM281 121q57 120 57 185q0 53 -37 53q-26 0 -26 -26q0 -8 4 -12l6 -8q4 -4 4 -9q0 -9 -13 -16t-31 -7q-17 0 -36 11zM235 613q8 16 43 16h53q29 0 29 -15q0 -10 -13 -20
l-111 -85q-24 -18 -32 -18q-18 0 -18 16q0 4 5 15l6 13z" />
    <glyph glyph-name="thorn" unicode="&#xfe;" horiz-adv-x="489" 
d="M199 28v-109q0 -22 16 -29l17 -7q24 -10 24 -31q0 -19 -15 -26q-10 -5 -42 -5h-135q-32 0 -42 5q-15 7 -15 26q0 21 24 31l17 7q16 7 16 29l1 495q0 22 -17 30l-20 9q-16 7 -16 28q0 12 5 18.5t53 23.5q53 18 64 25q23 15 35 15q28 0 31 -21q1 -4 1 -31l-1 -102
q27 33 53 41q17 5 61 5q80 0 123 -80q35 -65 35 -153q0 -92 -39 -157q-47 -78 -133 -78q-58 0 -101 41zM199 140q23 18 41 18q15 0 27.5 -8.5t12.5 -18.5q0 -4 -11.5 -12.5t-11.5 -22.5q0 -24 25 -24q45 0 45 111q0 150 -72 150q-56 0 -56 -88v-105z" />
    <glyph glyph-name="ydieresis" unicode="&#xff;" horiz-adv-x="442" 
d="M173 371q33 91 127 91q59 0 94 -37.5t35 -100.5q0 -122 -101 -294q-124 -211 -275 -211q-55 0 -92 30t-37 75q0 36 23.5 60.5t56.5 24.5q19 0 37 -10q22 -13 22 -31q0 -5 -4 -9l-10 -8q-7 -7 -7 -15q0 -22 29 -22q41 0 83 35q35 29 35 54q0 12 -15 44l-117 249
q-1 1 -6 11q-11 21 -23 27l-14 7q-19 9 -19 26q0 11 40 39q50 34 53 37q16 16 31 16q10 0 15 -5t16 -30zM323 627q28 0 48 -20t20 -48t-20 -47.5t-48 -19.5t-48 19.5t-20 47.5q0 29 20 48.5t48 19.5zM119 627q29 0 48.5 -19.5t19.5 -48.5q0 -28 -20 -47.5t-48 -19.5
t-48 19.5t-20 47.5t20 48t48 20zM281 121q57 120 57 185q0 53 -37 53q-26 0 -26 -26q0 -8 4 -12l6 -8q4 -4 4 -9q0 -9 -13 -16t-31 -7q-17 0 -36 11z" />
    <glyph glyph-name="dotlessi" unicode="&#x131;" horiz-adv-x="276" 
d="M213 98q0 -23 15 -29l17 -7q25 -10 25 -31q0 -18 -16 -26q-11 -5 -41 -5h-136q-57 0 -57 31q0 21 25 31l17 7q15 6 15 29v211q0 21 -17 30l-20 10q-17 8 -17 28q0 28 53 39q39 8 70 28q23 15 34 15q26 0 32 -21q0 -1 1 -10v-330z" />
    <glyph glyph-name="Lslash" unicode="&#x141;" horiz-adv-x="548" 
d="M306 400q12 8 23 8q13 0 22.5 -10t9.5 -23q0 -17 -18 -30l-76 -53v-112q0 -57 16.5 -81.5t54.5 -24.5q17 0 33 7q38 17 73 96l17 38q17 37 46 37q19 0 31.5 -12t12.5 -29q0 -11 -3 -20l-12 -37q-13 -40 -17 -99q-5 -72 -55 -72q-21 0 -38 17h-322q-37 0 -47 6
q-18 10 -18 33q0 24 28 39l20 8q17 9 17 38v54l-28 -20q-11 -8 -23 -8q-13 0 -22.5 10t-9.5 23q0 18 18 30l65 45v261q-3 13 -17 20l-38 18q-19 9 -19 31q0 31 40 36l70 8q50 6 95 27q38 18 55 18q15 0 25.5 -11t10.5 -26q0 -18 -11 -27l-29 -25l-19 -41v-174z" />
    <glyph glyph-name="lslash" unicode="&#x142;" horiz-adv-x="344" 
d="M287 400q11 8 23 8q13 0 22.5 -10t9.5 -23q0 -17 -18 -30l-82 -57v-190q0 -25 16 -29l17 -7q24 -10 24 -31q0 -31 -57 -31h-135q-57 0 -57 31q0 21 24 31l17 7q16 7 16 29v95l-50 -35q-11 -8 -23 -8q-13 0 -22.5 10t-9.5 23q0 17 18 30l87 61l-1 246q0 21 -16 29l-21 10
q-16 8 -16 28q0 29 54 39q37 7 68 28q23 16 36 16q7 0 16 -4q13 -7 14 -17q1 -3 1 -38v-243z" />
    <glyph glyph-name="OE" unicode="&#x152;" horiz-adv-x="864" 
d="M573 581v-189l35 5q0 39 38 39q32 0 37 -43l3 -24q2 -20 17 -74q10 -37 10 -44q0 -39 -36 -39q-19 0 -30 17q-6 10 -12.5 35t-12.5 35q-10 16 -29 16q-5 0 -20 -3v-165q0 -43 11 -57q16 -21 51 -21q59 0 103 100l17 39q16 36 45 36q44 0 44 -39q0 -8 -4 -20l-12 -36
q-18 -54 -18 -97l-3 -31q-2 -18 -16 -30t-33 -12q-25 0 -45 21h-335q-30 -6 -59 -6q-147 0 -225 105q-70 94 -70 247q0 139 69 234q77 106 211 106q42 0 70 -9q23 -7 63 -30q34 4 70 14l69 19q22 6 53 6q59 0 106 -34q18 24 43 24q14 0 25 -11.5t11 -27.5q0 -4 -2 -13
l-8 -34q-4 -19 -5 -51q-1 -63 -5 -74q-9 -25 -39 -25q-32 0 -39 33l-6 29l-8 33q-7 31 -20 44q-19 20 -47 20q-30 0 -62 -18zM410 346q0 89 -19 157q-25 91 -89 91q-49 0 -77 -68t-28 -186q0 -255 107 -255q106 0 106 261z" />
    <glyph glyph-name="oe" unicode="&#x153;" horiz-adv-x="696" 
d="M575 249h9q43 0 70.5 -31t27.5 -80q0 -70 -54 -110.5t-146 -40.5q-90 0 -137 51q-49 -51 -118 -51q-97 0 -155 70q-55 65 -55 164q0 96 53 165q57 75 151 75q49 0 76.5 -11.5t59.5 -46.5q12 12 18 17q50 42 119 42q53 0 97 -22.5t65 -60.5q10 -19 10 -34q0 -24 -43 -58z
M429 249l67 47q33 23 33 59q0 38 -32 38q-30 0 -48.5 -39t-19.5 -105zM432 164q7 -88 70 -88q21 0 35 14t14 35q0 9 -3 16q-7 15 -30 23q-12 4 -12 17q0 8 3 14q0 1 8 15q2 3 5 10zM284 226q0 150 -62 150q-60 0 -60 -153q0 -149 63 -149q59 0 59 152z" />
    <glyph glyph-name="Scaron" unicode="&#x160;" horiz-adv-x="562" 
d="M203 370q-33 17 -51 33q-56 49 -56 123q0 70 53 115t124 45q30 0 78 -10l24 -5q19 -4 35 -4q7 0 8 1l23 2h3q33 0 33 -28q-1 -7 -10 -69q-5 -35 -5 -39q-5 -37 -11 -46q-12 -17 -33 -17q-33 0 -44 62q-14 82 -74 82q-28 0 -47 -17.5t-19 -42.5q0 -32 31 -54
q25 -17 98 -54q91 -46 124 -80q55 -58 55 -140q0 -105 -83 -171q-77 -62 -184 -62q-101 0 -173 48q-82 56 -82 152q0 76 55 124q50 45 128 52zM336 301q14 -23 14 -44q0 -34 -22.5 -57.5t-54.5 -23.5q-50 0 -50 34q0 6 5 10l8 7q6 5 6 13q0 23 -30 23q-25 0 -43 -20t-18 -47
q0 -40 35.5 -68t86.5 -28q54 0 90.5 31.5t36.5 77.5t-64 92zM319 818l96 49q5 3 10 3q18 0 18 -18q0 -7 -9 -19l-64 -83q-26 -34 -51 -34q-23 0 -50 34l-65 83q-9 11 -9 19q0 18 19 18q6 0 10 -3l17 -9z" />
    <glyph glyph-name="scaron" unicode="&#x161;" horiz-adv-x="395" 
d="M126 223q-8 5 -22 16q-45 37 -45 94q0 55 43 93q40 36 96 36q12 0 36 -5.5t36 -5.5q5 0 15 3l16 5q10 3 15 3q26 0 26 -29q0 -11 -1 -14l-4 -38l-2 -43q-2 -36 -28 -36q-27 0 -38 36q-2 7 -8 24q-13 33 -46 33q-17 0 -29.5 -11t-12.5 -27t18 -30q14 -7 34 -16l40 -18
q117 -53 117 -148q0 -71 -52 -114.5t-137 -43.5q-71 0 -121 30q-59 35 -59 102q0 47 31 75.5t82 28.5zM181 191q11 -17 11 -30q0 -24 -15 -24q-2 0 -10 2t-11 2q-13 0 -22 -9.5t-9 -22.5q0 -23 19.5 -38t48.5 -15q30 0 49.5 16.5t19.5 41.5q0 33 -61 66q-9 5 -20 11z
M218 594l96 49q5 3 10 3q18 0 18 -18q0 -7 -9 -19l-64 -83q-26 -34 -51 -34q-23 0 -50 34l-65 83q-9 11 -9 19q0 18 19 18q6 0 10 -3l17 -9z" />
    <glyph glyph-name="Ydieresis" unicode="&#x178;" horiz-adv-x="537" 
d="M316 365q33 40 46 70q16 37 16 79q0 51 -53 74q-9 4 -22 10q-18 10 -18 31q0 38 51 38h125q69 0 69 -98q0 -80 -43.5 -160t-121.5 -144l2 -157q2 -16 16 -22l20 -8q28 -15 28 -39q0 -23 -18 -33q-10 -6 -47 -6h-164q-36 0 -46 6q-18 10 -18 33q0 27 28 39l19 8
q17 7 17 38v126l-5 6q-58 69 -89 151q-8 20 -28 58q-17 24 -42 28l-18 3q-29 5 -29 39q0 27 36 46q43 23 104 76q23 20 39 20q33 0 41 -66q13 -112 53 -179q18 -30 52 -67zM370 851q28 0 48 -19.5t20 -47.5t-19.5 -48t-48.5 -20q-28 0 -48 20t-20 48t20 47.5t48 19.5z
M167 851q28 0 48 -19.5t20 -47.5t-20 -48t-48 -20t-48 19.5t-20 47.5q0 29 20 48.5t48 19.5z" />
    <glyph glyph-name="Zcaron" unicode="&#x17d;" horiz-adv-x="524" 
d="M223 96h17q37 0 57 3q50 8 102 71l23 28q25 31 51 31q15 0 26 -10t11 -23q0 -11 -17 -48q-13 -28 -39 -120q-12 -42 -42 -42q-16 0 -33 14h-298q-68 0 -68 44q0 9 5 18l12 22l254 491q-26 2 -23 2q-24 0 -48 -10q-32 -13 -79 -70q-28 -34 -47 -34q-15 0 -26.5 11
t-11.5 25q0 10 7 25l25 54q15 31 20 52q14 54 46 54q17 0 31 -17h267q49 0 49 -33q0 -14 -11 -35zM319 818l96 49q5 3 10 3q18 0 18 -18q0 -7 -9 -19l-64 -83q-26 -34 -51 -34q-23 0 -50 34l-65 83q-9 11 -9 19q0 18 19 18q6 0 10 -3l17 -9z" />
    <glyph glyph-name="zcaron" unicode="&#x17e;" horiz-adv-x="374" 
d="M170 80h57q33 0 62 50q32 56 52 56q29 0 29 -30q0 -3 -2 -13q-14 -29 -36 -127q-6 -29 -30 -29q-15 0 -28 13h-232q-38 0 -38 25q0 19 10 33l183 311h-36q-16 0 -23.5 -6t-21.5 -29q-20 -33 -23 -37q-17 -22 -35 -22q-27 0 -27 24q0 7 12 42q14 39 16 49l8 40q6 28 27 28
q15 0 28 -15h206q34 0 34 -21q0 -9 -11 -28zM218 594l96 49q5 3 10 3q18 0 18 -18q0 -7 -9 -19l-64 -83q-26 -34 -51 -34q-23 0 -50 34l-65 83q-9 11 -9 19q0 18 19 18q6 0 10 -3l17 -9z" />
    <glyph glyph-name="longs" unicode="&#x17f;" horiz-adv-x="328" 
d="M211 96q0 -63 -27 -125q-18 -42 -48 -70.5t-56 -28.5q-17 0 -23 11l-27 46q-9 13 -29 39q-11 14 -11 24q0 21 25 21q34 0 47 18.5t13 68.5v274h-10q-45 0 -45 32q0 18 25 34q41 27 41 68v25q0 63 43 100t114 37q58 0 105 -30q53 -34 53 -89q0 -35 -22.5 -59.5
t-54.5 -24.5q-40 0 -60 31q-7 11 -7 21q0 6 4 9l9 8q17 15 17 33q0 13 -11.5 23.5t-26.5 10.5q-41 0 -41 -56q0 -11 3 -56q-1 13 -1 -124z" />
    <glyph glyph-name="florin" unicode="&#x192;" 
d="M345 386h59q39 0 39 -30q0 -29 -39 -29h-73l-36 -160q-23 -101 -45 -142q-33 -59 -85.5 -95t-108.5 -36q-51 0 -88.5 35t-37.5 86q0 42 26 70t65 28q23 0 41.5 -12.5t18.5 -28.5q0 -3 -11.5 -14.5t-11.5 -26.5q0 -31 31 -31q28 0 40 25q6 13 16 67q8 43 15 75l36 160h-49
q-35 0 -35 29q0 30 34 30h64l24 110q11 52 38 96q24 39 70.5 62t100.5 23q58 0 95.5 -29.5t37.5 -76.5q0 -41 -27.5 -69.5t-67.5 -28.5q-25 0 -42.5 13.5t-17.5 33.5q0 9 18 22q25 17 25 39q0 28 -31 28q-46 0 -58 -73l-6 -38q-5 -29 -9 -48z" />
    <glyph glyph-name="circumflex" unicode="&#x2c6;" horiz-adv-x="500" 
d="M250 544l-96 -49q-4 -3 -9 -3q-19 0 -19 18q0 7 9 19l64 83q26 34 51 34t51 -34l64 -83q9 -12 9 -19q0 -18 -19 -18q-4 0 -9 3l-17 9z" />
    <glyph glyph-name="ring" unicode="&#x2da;" horiz-adv-x="500" 
d="M250 664q36 0 61.5 -25.5t25.5 -61.5t-25.5 -62t-61.5 -26t-61.5 26t-25.5 62t25.5 61.5t61.5 25.5zM250 525q27 0 27 53q0 52 -27 52t-27 -52q0 -53 27 -53z" />
    <glyph glyph-name="tilde" unicode="&#x2dc;" horiz-adv-x="500" 
d="M267 618q15 -5 24 -5q14 0 33 10q17 7 24 7q23 0 23 -26q0 -16 -15.5 -35.5t-37.5 -30.5q-18 -9 -37 -9q-16 0 -42.5 10t-36.5 10q-5 0 -28 -9q-14 -8 -23 -8q-22 0 -22 25q0 13 8 26q29 48 80 48q11 0 26 -5z" />
    <glyph glyph-name="emdash" unicode="&#x2014;" 
d="M430 253q37 0 37 -33t-37 -33h-326q-37 0 -37 33t37 33h326z" />
    <glyph glyph-name="quoteleft" unicode="&#x2018;" horiz-adv-x="282" 
d="M57 487q0 63 43 132q38 61 73 61q24 0 24 -25q0 -10 -7 -20q-3 -5 -13 -19q-19 -26 -19 -43q0 -15 26 -34q41 -31 41 -70q0 -34 -24.5 -58.5t-58.5 -24.5q-39 0 -62 27.5t-23 73.5z" />
    <glyph glyph-name="quoteright" unicode="&#x2019;" horiz-adv-x="282" 
d="M226 579h-1q0 -63 -43 -132q-38 -61 -73 -61q-24 0 -24 25q0 10 7 20q4 5 14 19q18 25 18 43q0 14 -26 34q-41 31 -41 70q0 34 24.5 58.5t58.5 24.5q39 0 62 -27.5t24 -73.5z" />
    <glyph glyph-name="quotesinglbase" unicode="&#x201a;" horiz-adv-x="282" 
d="M226 32h-1q0 -62 -43 -130q-39 -62 -73 -62q-24 0 -24 25q0 10 7 20l14 19q18 25 18 43q0 15 -26 34q-41 30 -41 69q0 35 24.5 59t58.5 24q39 0 62 -27t24 -74z" />
    <glyph glyph-name="quotedblleft" unicode="&#x201c;" horiz-adv-x="482" 
d="M57 487q0 63 43 132q38 61 73 61q24 0 24 -25q0 -10 -7 -20q-3 -5 -13 -19q-19 -26 -19 -43q0 -15 26 -34q41 -31 41 -70q0 -34 -24.5 -58.5t-58.5 -24.5q-39 0 -62 27.5t-23 73.5zM257 487q0 63 43 132q38 61 73 61q24 0 24 -25q0 -10 -7 -20q-3 -5 -13 -19
q-19 -26 -19 -43q0 -15 26 -34q41 -31 41 -70q0 -34 -24.5 -58.5t-58.5 -24.5q-39 0 -62 27.5t-23 73.5z" />
    <glyph glyph-name="quotedblright" unicode="&#x201d;" horiz-adv-x="482" 
d="M426 579h-1q0 -63 -43 -132q-38 -61 -73 -61q-24 0 -24 25q0 10 7 20q4 5 14 19q18 25 18 43q0 14 -26 34q-41 31 -41 70q0 34 24.5 58.5t58.5 24.5q39 0 62 -27.5t24 -73.5zM226 579h-1q0 -63 -43 -132q-38 -61 -73 -61q-24 0 -24 25q0 10 7 20q4 5 14 19q18 25 18 43
q0 14 -26 34q-41 31 -41 70q0 34 24.5 58.5t58.5 24.5q39 0 62 -27.5t24 -73.5z" />
    <glyph glyph-name="quotedblbase" unicode="&#x201e;" horiz-adv-x="482" 
d="M426 32h-1q0 -62 -43 -130q-39 -62 -73 -62q-24 0 -24 25q0 10 7 20l14 19q18 25 18 43q0 15 -26 34q-41 30 -41 69q0 35 24.5 59t58.5 24q39 0 62 -27t24 -74zM226 32h-1q0 -62 -43 -130q-39 -62 -73 -62q-24 0 -24 25q0 10 7 20l14 19q18 25 18 43q0 15 -26 34
q-41 30 -41 69q0 35 24.5 59t58.5 24q39 0 62 -27t24 -74z" />
    <glyph glyph-name="dagger" unicode="&#x2020;" horiz-adv-x="352" 
d="M294 470q-15 -1 -44 17q-32 19 -47 20q1 -14 24 -115q5 -22 5 -34q0 -21 -19 -113q-10 -97 -10 -117v-116q0 -27 -27 -27t-27 27v116q0 20 -10 117q-19 92 -19 113q0 15 15 72q13 47 14 77q-15 -1 -45.5 -19.5t-45.5 -17.5q-26 2 -42 22q-8 10 -25 43q11 21 16 30
q11 18 22 26t29 9q15 1 45.5 -17.5t44.5 -19.5q-1 23 -23.5 54.5t-22.5 49.5q3 20 20 34q10 8 54 32q44 -24 54 -32q17 -14 20 -34q0 -18 -22.5 -49.5t-23.5 -54.5q14 1 46 20q29 18 44 17q26 -2 42 -22q7 -8 26 -43q-13 -24 -17 -30q-11 -18 -22 -26t-29 -9z" />
    <glyph glyph-name="daggerdbl" unicode="&#x2021;" horiz-adv-x="352" 
d="M294 116q-15 -1 -44 17q-32 19 -46 20q1 -23 23.5 -54.5t22.5 -49.5q-3 -20 -20 -34q-12 -10 -54 -31q-42 21 -54 31q-17 14 -20 34q0 18 22.5 49.5t23.5 54.5q-14 -1 -44.5 -19.5t-45.5 -17.5q-26 2 -42 22q-8 10 -25 43q11 21 16 30q11 18 22 26t29 9q15 1 45.5 -17.5
t45.5 -19.5q-1 14 -24 115q-5 22 -5 34q0 15 15 72q13 47 14 77q-15 -1 -45.5 -19.5t-45.5 -17.5q-26 2 -42 22q-8 10 -25 43q11 21 16 30q11 18 22 26t29 9q15 1 45.5 -17.5t44.5 -19.5q-1 23 -23.5 54.5t-22.5 49.5q3 20 20 34q10 8 54 32q44 -24 54 -32q17 -14 20 -34
q0 -18 -22.5 -49.5t-23.5 -54.5q14 1 46 20q29 18 44 17q26 -2 42 -22q7 -8 26 -43q-13 -24 -17 -30q-11 -18 -22 -26t-29 -9q-15 -1 -44 17q-32 19 -47 20q1 -14 24 -115q5 -22 5 -34q0 -15 -15 -72q-13 -47 -14 -77q15 1 47 20q29 18 44 17q26 -2 42 -22q7 -8 26 -43
q-13 -24 -17 -30q-11 -18 -22 -26t-29 -9z" />
    <glyph glyph-name="bullet" unicode="&#x2022;" horiz-adv-x="667" 
d="M334 480q57 0 97 -41.5t40 -98.5t-40 -98.5t-97 -41.5q-58 0 -98 41t-40 99t40 99t98 41z" />
    <glyph glyph-name="ellipsis" unicode="&#x2026;" horiz-adv-x="904" 
d="M151 169q38 0 66 -27.5t28 -66.5t-27.5 -66t-66.5 -27t-66.5 27t-27.5 66t27.5 66.5t66.5 27.5zM452 169q39 0 66.5 -27.5t27.5 -66.5t-27.5 -66t-66.5 -27t-66.5 27t-27.5 66t27.5 66.5t66.5 27.5zM753 169q39 0 66.5 -27.5t27.5 -66.5t-27.5 -66t-66.5 -27t-66.5 27
t-27.5 66t27.5 66.5t66.5 27.5z" />
    <glyph glyph-name="perthousand" unicode="&#x2030;" horiz-adv-x="1040" 
d="M698 194q0 -96 -38 -148.5t-107 -52.5q-70 0 -108 54t-38 155q0 93 38 145.5t105 52.5q71 0 109.5 -54t38.5 -152zM1026 194q0 -97 -38 -149t-108 -52t-108 54t-38 155q0 93 38 145.5t106 52.5q71 0 109.5 -54t38.5 -152zM399 636q7 31 30 31q28 0 28 -27q0 -5 -1 -11
l-1 -6l-137 -592q-7 -31 -31 -31q-27 0 -27 27q0 7 2 13v4zM305 461q0 -97 -37.5 -149.5t-107.5 -52.5q-146 0 -146 210q0 92 38.5 145t105.5 53q70 0 108.5 -54t38.5 -152zM598 196q0 136 -47 136q-45 0 -45 -136t48 -136q44 0 44 136zM926 196q0 136 -47 136
q-45 0 -45 -136t47 -136q45 0 45 136zM206 462q0 137 -47 137q-45 0 -45 -136t47 -136q45 0 45 135z" />
    <glyph glyph-name="guilsinglleft" unicode="&#x2039;" horiz-adv-x="229" 
d="M138 214l51 -142q7 -19 7 -31q0 -21 -21 -21q-14 0 -31 22l-89 115q-22 28 -22 57q0 28 22 56l89 115q17 22 31 22q21 0 21 -21q0 -11 -7 -30z" />
    <glyph glyph-name="guilsinglright" unicode="&#x203a;" horiz-adv-x="229" 
d="M91 214l-51 142q-7 19 -7 30q0 21 21 21q15 0 32 -22l88 -115q22 -29 22 -56q0 -28 -22 -57l-88 -115q-17 -22 -32 -22q-21 0 -21 21q0 12 7 31z" />
    <glyph glyph-name="fraction" unicode="&#x2044;" horiz-adv-x="62" 
d="M90 643q7 26 30 26q27 0 27 -28q0 -7 -2 -14l-2 -7l-168 -589q-9 -33 -32 -33q-27 0 -27 28l2 14l2 6z" />
    <glyph glyph-name="trademark" unicode="&#x2122;" horiz-adv-x="836" 
d="M50 614h-22v70h304v-70h-22q-7 48 -49 48h-37v-239q0 -40 42 -40v-22h-172v22q42 0 42 40v239h-37q-41 0 -49 -48zM362 684h125l105 -216l113 216h107v-22q-43 0 -43 -32v-207q0 -40 42 -40v-22h-173v22q43 0 43 40v159h-2l-115 -220h-13l-105 220h-1v-159q0 -40 41 -40
v-22h-108v22q40 1 40 40v198q0 13 -19 27t-37 14v22z" />
    <glyph glyph-name="fi" unicode="&#xf001;" horiz-adv-x="531" 
d="M213 443h182l20 10q12 6 22 6q23 0 30 -21q0 -1 1 -10v-330q0 -23 15 -29l17 -7q25 -10 25 -31q0 -17 -16 -26q-12 -5 -41 -5h-136q-57 0 -57 31q0 21 25 31l17 7q15 6 15 29v238q0 33 -39 33h-82v-273q0 -63 -27 -125q-18 -42 -48 -70.5t-56 -28.5q-17 0 -23 11l-27 46
q-9 13 -29 39q-11 14 -11 24q0 21 25 21q34 0 47 18.5t13 68.5v274h-10q-45 0 -45 32q0 17 23.5 32.5t33.5 29.5t10 40v28q0 134 185 134q181 0 181 -101q0 -34 -24 -58t-58 -24t-57 23t-24 58q-9 35 -39 35q-43 0 -43 -56q0 -8 1 -24l2 -32q2 -32 2 -48z" />
    <glyph glyph-name="fl" unicode="&#xf002;" horiz-adv-x="531" 
d="M342 629q27 7 60 25q29 16 34 16q25 0 31 -21q0 -2 1 -13v-538q0 -23 15 -29l17 -7q25 -10 25 -31q0 -18 -16 -26q-11 -5 -41 -5h-136q-29 0 -41 5q-16 9 -16 26q0 21 25 31l17 7q15 6 15 29v389q-7 -3 -18 -3q-16 0 -23 4q-26 12 -26 32q0 5 3 8l7 8q12 14 12 32
q0 14 -11 24.5t-27 10.5q-41 0 -41 -56q0 -4 3 -56q2 -35 2 -49h55q45 0 45 -37q0 -36 -44 -36h-58v-273q0 -63 -27 -125q-18 -42 -48 -70.5t-56 -28.5q-17 0 -23 11l-27 46q-9 13 -29 39q-11 14 -11 24q0 21 25 21q34 0 47 18.5t13 68.5v274h-10q-45 0 -45 32q0 18 25 34
q41 27 41 68v25q0 62 41.5 99.5t108.5 37.5q63 0 106 -41z" />
    <glyph glyph-name="glyph216" horiz-adv-x="500" 
d="M63 0v745h375v-745h-375zM125 63h250v620h-250v-620z" />
    <glyph glyph-name="DST" horiz-adv-x="1426" 
d="M1415 -37h-1404v837h1404v-837zM1390 562q0 30 -19 51t-46 21h-148q-37 0 -37 35v131h-57v-131q0 -88 116 -88q16 0 47.5 2t47.5 2q41 0 41 -19q0 -21 -40 -21q-16 0 -48.5 2.5t-48.5 2.5q-115 0 -115 -96v-322q0 -69 72 -86v56q-19 12 -19 42v302q0 45 35 45h146
q29 0 51 21t22 50zM1003 136v94q0 41 -26 64.5t-70 23.5h-246q-41 0 -41 37v95q0 43 41 43h244q24 0 43 -21h50q-13 76 -89 76h-246q-45 0 -71.5 -28.5t-26.5 -73.5v-89q0 -41 25.5 -66.5t66.5 -25.5h250q45 0 45 -45v-76q0 -45 -61 -45h-250q-22 0 -22 21q0 18 20 18h270
v53h-279q-29 0 -47 -21t-18 -52q0 -30 20 -50t50 -20h282q39 0 62.5 24.5t23.5 63.5zM496 800h-56l2 -682q0 -6 -6 -13.5t-12 -7.5q-19 0 -19 21v151q0 44 -31 75l-179 177q-19 19 -52 19t-56 -17q-26 -19 -26 -51v-330q0 -96 88 -96h82q64 0 77 72h-53q-12 -15 -25 -21h-81
q-35 0 -35 43v310q0 5 8 32q8 6 17 6q13 0 27 -14l95 -93q85 -84 87 -93q2 -62 2 -169q0 -33 20 -55t52 -22q30 0 51.5 22t21.5 52z" />
  </font>
</defs>
</svg>
